<svg width="2555" height="1443" viewBox="0 0 2555 1443" fill="none" xmlns="http://www.w3.org/2000/svg">
<path d="M98.1465 1436.68C98.7505 1426.18 -148.402 1110.93 139.413 819.864C269.34 688.472 489.115 759.664 454.349 375.836C424.332 44.4348 942.776 -150.296 1264.98 145.59C1473.15 336.755 1683.9 81.7328 2014.15 226.432C2344.4 371.131 2126.93 764.419 2262.45 801.477C2529.4 874.476 2661.98 1195.72 2449.15 1433.11L98.1465 1436.68Z" fill="#EBF3FA"/>
<path d="M1210.9 670.473C1209.5 667.583 1207.96 664.651 1206.31 661.761L1210.96 659.119C1212.66 662.11 1214.26 665.145 1215.71 668.14L1210.9 670.473ZM1201.18 653.343C1199.41 650.627 1197.52 647.897 1195.56 645.228L1199.87 642.062C1201.89 644.812 1203.84 647.625 1205.66 650.423L1201.18 653.343ZM670.005 712.296C666.623 712.659 663.222 712.944 659.895 713.139L659.58 707.802C662.821 707.612 666.137 707.334 669.432 706.979L670.005 712.296ZM680.06 710.972L679.241 705.688C682.458 705.189 685.737 704.606 688.989 703.954L690.04 709.198C686.711 709.864 683.353 710.462 680.06 710.972ZM649.747 713.479C646.346 713.504 642.929 713.44 639.591 713.287L639.837 707.945C643.079 708.095 646.4 708.157 649.707 708.132L649.747 713.479ZM699.931 706.998L698.662 701.804C701.831 701.03 705.055 700.172 708.24 699.258L709.716 704.398C706.462 705.332 703.17 706.207 699.931 706.998ZM629.453 712.535C626.071 712.189 622.678 711.74 619.369 711.201L620.228 705.924C623.433 706.446 626.721 706.881 629.999 707.217L629.453 712.535ZM719.387 701.421L717.72 696.34C720.823 695.321 723.975 694.223 727.088 693.072L728.939 698.09C725.765 699.261 722.551 700.382 719.387 701.421ZM738.362 694.426L736.341 689.476C739.368 688.238 742.441 686.924 745.471 685.57L747.654 690.45C744.571 691.828 741.444 693.166 738.362 694.426ZM609.378 709.262C606.051 708.507 602.733 707.644 599.521 706.694L601.037 701.566C604.139 702.483 607.346 703.318 610.561 704.048L609.378 709.262ZM1189.5 637.426C1187.43 634.902 1185.25 632.384 1183.03 629.945L1186.99 626.347C1189.27 628.854 1191.5 631.439 1193.63 634.035L1189.5 637.426ZM756.809 686.179L754.474 681.369C757.417 679.941 760.404 678.437 763.351 676.895L765.828 681.634C762.834 683.2 759.799 684.728 756.809 686.179ZM589.845 703.483C586.651 702.302 583.475 701.002 580.407 699.618L582.605 694.745C585.561 696.077 588.621 697.331 591.699 698.469L589.845 703.483ZM774.707 676.832L772.097 672.166C774.956 670.566 777.854 668.892 780.71 667.191L783.445 671.785C780.549 673.511 777.608 675.208 774.707 676.832ZM1176.2 622.797C1173.88 620.484 1171.46 618.195 1169.02 615.992L1172.61 612.022C1175.11 614.283 1177.59 616.633 1179.97 619.006L1176.2 622.797ZM571.26 695.093C568.267 693.476 565.307 691.732 562.462 689.911L565.345 685.408C568.079 687.158 570.924 688.834 573.803 690.388L571.26 695.093ZM792.046 666.509L789.191 661.988C791.957 660.243 794.764 658.42 797.54 656.57L800.506 661.019C797.694 662.894 794.847 664.741 792.046 666.509ZM808.827 655.325L805.756 650.948C808.441 649.065 811.16 647.11 813.842 645.135L817.011 649.442C814.298 651.44 811.544 653.42 808.827 655.325ZM554.073 684.081C551.355 682.032 548.691 679.858 546.153 677.62L549.691 673.61C552.126 675.759 554.682 677.843 557.291 679.808L554.073 684.081ZM1161.52 609.539C1158.99 607.462 1156.36 605.416 1153.72 603.454L1156.91 599.162C1159.62 601.173 1162.31 603.272 1164.91 605.405L1161.52 609.539ZM825.061 643.378L821.797 639.142L822.59 638.531C824.995 636.67 827.4 634.84 829.795 633.047L832.999 637.327C830.627 639.104 828.246 640.916 825.857 642.764L825.061 643.378ZM1145.64 597.747C1142.92 595.919 1140.11 594.13 1137.3 592.43L1140.07 587.855C1142.95 589.598 1145.83 591.433 1148.62 593.309L1145.64 597.747ZM538.768 670.567C536.405 668.127 534.115 665.561 531.959 662.945L536.085 659.545C538.15 662.053 540.347 664.51 542.611 666.849L538.768 670.567ZM841.037 631.428L837.914 627.088C840.645 625.125 843.414 623.172 846.146 621.286L849.183 625.687C846.479 627.554 843.737 629.486 841.037 631.428ZM1128.72 587.514C1125.83 585.951 1122.87 584.437 1119.91 583.012L1122.23 578.194C1125.26 579.656 1128.3 581.21 1131.26 582.812L1128.72 587.514ZM857.442 620.113L854.497 615.65C857.317 613.789 860.167 611.952 862.964 610.189L865.815 614.714C863.048 616.456 860.231 618.272 857.442 620.113ZM525.778 654.801C523.837 652.021 521.981 649.121 520.263 646.185L524.878 643.485C526.524 646.3 528.302 649.077 530.16 651.742L525.778 654.801ZM874.299 609.502L871.552 604.914C874.433 603.187 877.362 601.479 880.259 599.835L882.9 604.485C880.038 606.109 877.145 607.797 874.299 609.502ZM1110.9 578.934C1107.87 577.651 1104.78 576.425 1101.7 575.29L1103.56 570.273C1106.71 571.437 1109.88 572.695 1112.99 574.01L1110.9 578.934ZM891.614 599.676L889.089 594.963C892.049 593.377 895.061 591.815 898.041 590.314L900.445 595.09C897.504 596.57 894.534 598.113 891.614 599.676ZM1092.35 572.087C1089.22 571.099 1086.02 570.173 1082.85 569.333L1084.22 564.163C1087.47 565.024 1090.75 565.976 1093.96 566.989L1092.35 572.087ZM909.39 590.74L907.115 585.9C910.167 584.466 913.261 583.065 916.31 581.734L918.446 586.636C915.444 587.946 912.396 589.326 909.39 590.74ZM515.452 637.153C513.978 634.101 512.606 630.949 511.373 627.78L516.354 625.839C517.538 628.878 518.854 631.902 520.267 634.828L515.452 637.153ZM1073.23 567.03C1070.03 566.342 1066.76 565.718 1063.51 565.178L1064.39 559.904C1067.72 560.459 1071.07 561.097 1074.35 561.801L1073.23 567.03ZM927.614 582.796L925.622 577.834C928.754 576.576 931.925 575.357 935.051 574.212L936.893 579.233C933.818 580.36 930.696 581.558 927.614 582.796ZM1053.72 563.78C1050.46 563.391 1047.15 563.072 1043.87 562.831L1044.27 557.498C1047.62 557.745 1051.02 558.071 1054.36 558.471L1053.72 563.78ZM946.269 575.962L944.591 570.885C947.801 569.824 951.046 568.81 954.237 567.871L955.747 573.001C952.612 573.924 949.424 574.919 946.269 575.962ZM1033.99 562.327C1030.73 562.233 1027.4 562.21 1024.09 562.259L1024.02 556.913C1027.4 556.862 1030.81 556.886 1034.15 556.981L1033.99 562.327ZM965.316 570.364L963.987 565.185C967.248 564.347 970.557 563.56 973.826 562.845L974.969 568.067C971.764 568.77 968.514 569.543 965.316 570.364ZM1014.2 562.617C1010.93 562.805 1007.61 563.065 1004.33 563.39L1003.8 558.069C1007.15 557.737 1010.55 557.47 1013.89 557.279L1014.2 562.617ZM984.696 566.132L983.75 560.869C987.078 560.27 990.442 559.733 993.747 559.271L994.487 564.567C991.25 565.02 987.955 565.547 984.696 566.132ZM508.035 618.122C507.056 614.897 506.184 611.573 505.441 608.242L510.66 607.079C511.373 610.28 512.212 613.472 513.151 616.569L508.035 618.122ZM503.588 598.206C503.408 596.98 503.242 595.749 503.094 594.512C502.836 592.373 502.623 590.204 502.461 588.061L507.793 587.658C507.948 589.722 508.153 591.813 508.401 593.873C508.545 595.063 508.704 596.247 508.878 597.426L503.588 598.206ZM507.387 577.828L502.04 577.869C502.016 574.511 502.103 571.083 502.301 567.676L507.639 567.987C507.447 571.276 507.363 574.588 507.387 577.828ZM508.52 558.172L503.21 557.529C503.608 554.246 504.114 550.907 504.714 547.605L510.003 548.41L509.964 548.618C509.395 551.759 508.905 554.993 508.52 558.172ZM511.979 538.715L506.763 537.537C507.506 534.248 508.328 530.939 509.205 527.707L514.366 529.108C513.509 532.269 512.705 535.501 511.979 538.715ZM694.908 511.659C691.379 511.994 687.884 512.084 684.522 511.926L684.773 506.585C687.883 506.731 691.125 506.647 694.403 506.336L694.908 511.659ZM705.122 510.044L703.973 504.821C707.075 504.138 710.229 503.259 713.343 502.21L715.051 507.276C711.753 508.388 708.413 509.318 705.122 510.044ZM674.152 510.587C670.637 509.82 667.266 508.734 664.131 507.358L666.279 502.461C669.092 503.695 672.124 504.671 675.293 505.364L674.152 510.587ZM724.62 503.504L722.416 498.633C725.354 497.303 728.279 495.808 731.11 494.188L733.767 498.829C730.79 500.532 727.714 502.104 724.62 503.504ZM742.427 493.321L739.352 488.946C742.016 487.073 744.614 485.06 747.068 482.964L750.541 487.03C747.958 489.235 745.227 491.351 742.427 493.321ZM517.171 519.619L512.078 517.99C513.104 514.776 514.216 511.553 515.377 508.409L520.392 510.263C519.258 513.333 518.175 516.48 517.171 519.619ZM654.962 502.053C652.124 499.947 649.524 497.498 647.237 494.779L651.328 491.338C653.349 493.74 655.644 495.901 658.148 497.762L654.962 502.053ZM758.028 479.997L754.183 476.281C756.453 473.932 758.611 471.464 760.598 468.944L764.797 472.257C762.699 474.916 760.422 477.52 758.028 479.997ZM524.032 501.063L519.105 498.985C520.416 495.878 521.814 492.767 523.259 489.738L528.085 492.041C526.675 494.998 525.311 498.032 524.032 501.063ZM641.365 485.993C639.793 483 638.454 479.737 637.385 476.296L642.491 474.708C643.464 477.84 644.679 480.801 646.099 483.508L641.365 485.993ZM770.739 463.848L766.214 460.999C767.949 458.241 769.534 455.385 770.921 452.508L775.737 454.833C774.262 457.888 772.581 460.922 770.739 463.848ZM532.55 483.214L527.835 480.691C529.422 477.724 531.102 474.753 532.823 471.864L537.417 474.602C535.735 477.422 534.098 480.319 532.55 483.214ZM635.06 466.163C634.915 465.232 634.784 464.287 634.667 463.324C634.379 460.934 634.182 458.432 634.083 455.889L639.427 455.681C639.521 458.08 639.705 460.437 639.977 462.685C640.084 463.584 640.208 464.469 640.343 465.34L635.06 466.163ZM779.675 445.288L774.62 443.546C775.674 440.487 776.546 437.35 777.213 434.219L782.442 435.331C781.731 438.674 780.801 442.024 779.675 445.288ZM542.678 466.224L538.215 463.277C540.064 460.477 542.009 457.676 543.998 454.949L548.319 458.099C546.38 460.759 544.48 463.493 542.678 466.224ZM639.465 445.872L634.122 445.664C634.255 442.247 634.506 438.826 634.87 435.5L640.185 436.08C639.836 439.284 639.593 442.578 639.465 445.872ZM783.968 425.106L778.641 424.646C778.915 421.455 778.996 418.201 778.88 414.971L784.224 414.778C784.347 418.224 784.261 421.699 783.968 425.106ZM554.331 450.239L550.161 446.894C552.262 444.273 554.456 441.661 556.681 439.13L560.696 442.662C558.523 445.132 556.383 447.68 554.331 450.239ZM567.4 435.382L563.549 431.672C565.886 429.246 568.307 426.844 570.744 424.53L574.425 428.41C572.046 430.668 569.681 433.014 567.4 435.382ZM641.604 426.387L636.346 425.414C636.966 422.062 637.72 418.714 638.589 415.461L643.755 416.84C642.924 419.96 642.199 423.172 641.604 426.387ZM777.691 405.567C776.968 402.472 775.905 399.507 774.535 396.753L779.321 394.369C780.877 397.494 782.081 400.852 782.897 404.35L777.691 405.567ZM581.757 421.755L578.251 417.718C580.787 415.517 583.411 413.339 586.052 411.243L589.376 415.432C586.796 417.478 584.233 419.606 581.757 421.755ZM646.653 407.501L641.614 405.711C642.753 402.507 644.035 399.318 645.423 396.233L650.3 398.428C648.97 401.381 647.743 404.433 646.653 407.501ZM769.397 388.946C767.427 386.608 765.131 384.424 762.573 382.458L765.831 378.219C768.693 380.419 771.269 382.869 773.487 385.5L769.397 388.946ZM597.265 409.448L594.128 405.118C596.858 403.141 599.662 401.201 602.465 399.351L605.41 403.813C602.674 405.621 599.932 407.516 597.265 409.448ZM613.794 398.538L611.044 393.952C613.932 392.222 616.895 390.533 619.852 388.93L622.399 393.633C619.51 395.197 616.614 396.847 613.794 398.538ZM654.674 389.68L649.993 387.096C651.437 384.479 653 381.872 654.647 379.332C652.886 379.948 651.124 380.59 649.382 381.251L647.486 376.252C650.647 375.052 653.865 373.914 657.052 372.872L658.715 377.954C657.821 378.246 656.926 378.546 656.03 378.852L659.743 381.307C657.941 384.035 656.235 386.852 654.674 389.68ZM754.516 377.386C751.776 375.976 748.795 374.714 745.656 373.638L747.39 368.579C750.773 369.74 753.994 371.102 756.963 372.631L754.516 377.386ZM631.209 389.107L628.87 384.299C631.9 382.824 635.002 381.401 638.087 380.067L640.208 384.974C637.196 386.277 634.168 387.669 631.209 389.107ZM736.306 371.058C733.235 370.395 729.996 369.865 726.678 369.482L727.291 364.171C730.781 364.572 734.193 365.131 737.433 365.83L736.306 371.058ZM668.189 375.103L667.129 371.249C666.564 371.946 666.006 372.648 665.46 373.349L661.239 370.068C663.297 367.422 665.501 364.793 667.795 362.25L671.766 365.831C670.693 367.021 669.639 368.231 668.613 369.453C671.29 368.745 673.98 368.092 676.634 367.507L677.787 372.729C674.61 373.428 671.382 374.227 668.189 375.103ZM716.909 368.774C713.721 368.672 710.414 368.688 707.084 368.822L706.869 363.479C710.327 363.34 713.763 363.324 717.08 363.429L716.909 368.774ZM687.485 370.859L686.618 365.583C690.012 365.027 693.401 364.568 696.705 364.222L697.262 369.54C694.056 369.876 690.774 370.319 687.485 370.859ZM678.598 358.765L674.882 354.92C677.279 352.602 679.816 350.304 682.417 348.092L685.882 352.163C683.367 354.303 680.917 356.525 678.598 358.765ZM693.569 346.008L690.349 341.74C693.001 339.739 695.784 337.758 698.618 335.852L701.603 340.29C698.846 342.142 696.144 344.065 693.569 346.008ZM709.929 334.99L707.169 330.411C710.011 328.698 712.977 327.004 715.982 325.376L718.529 330.079C715.595 331.667 712.702 333.32 709.929 334.99ZM727.348 325.545L725.003 320.74C727.982 319.287 731.076 317.852 734.197 316.478L736.352 321.371C733.296 322.718 730.265 324.122 727.348 325.545ZM745.518 317.537L743.543 312.568C746.625 311.342 749.812 310.138 753.015 308.99L754.821 314.023C751.675 315.152 748.545 316.334 745.518 317.537ZM764.239 310.817L762.596 305.728C765.771 304.704 769.027 303.707 772.271 302.767L773.76 307.902C770.567 308.829 767.363 309.809 764.239 310.817ZM783.368 305.269L782.029 300.092C785.262 299.256 788.569 298.45 791.86 297.697L793.053 302.91C789.811 303.652 786.552 304.446 783.368 305.269ZM802.803 300.822L801.755 295.578C805.082 294.913 808.432 294.293 811.711 293.734L812.609 299.005C809.38 299.555 806.081 300.167 802.803 300.822ZM832.286 296.329C832.261 296.331 828.617 296.629 822.463 297.48L821.729 292.184C828.079 291.303 831.747 291.007 831.859 290.999L832.286 296.329Z" fill="#8C9DF4"/>
<path d="M858.283 885.252H645.565V1431.5H858.283V885.252Z" fill="#BDD1F9"/>
<path d="M1189.21 706.706H976.489V1431.5H1189.21V706.706Z" fill="#BDD1F9"/>
<path d="M1510.3 514.013H1277.38V1431.5H1510.3V514.013Z" fill="#BDD1F9"/>
<path d="M1806 386.998H1593.29V1431.5H1806V386.998Z" fill="#BDD1F9"/>
<path d="M1510.3 819.768L1957.38 603.34L1757.99 1028.35L1724.28 835.52L1510.3 819.768Z" fill="#F77D48"/>
<path d="M1407.45 674.881C1396.51 629.928 1424.08 584.617 1469.04 573.678C1513.99 562.738 1559.3 590.313 1570.24 635.268C1581.18 680.222 1553.6 725.532 1508.65 736.471C1463.7 747.41 1418.39 719.835 1407.45 674.881Z" fill="#FFB93E"/>
<path d="M1507.12 730.197C1487.31 735.016 1466.81 731.835 1449.4 721.237C1431.98 710.637 1419.74 693.891 1414.92 674.083C1410.1 654.274 1413.28 633.774 1423.88 616.356C1434.47 598.941 1451.22 586.696 1471.03 581.875C1490.84 577.056 1511.34 580.237 1528.76 590.836C1546.17 601.434 1558.42 618.181 1563.24 637.989C1568.06 657.798 1564.88 678.299 1554.28 695.715C1543.68 713.131 1526.93 725.377 1507.12 730.197ZM1472.11 586.299C1433.65 595.657 1409.98 634.554 1419.34 673.006C1428.7 711.459 1467.59 735.13 1506.05 725.774C1544.5 716.416 1568.17 677.519 1558.81 639.066C1549.46 600.613 1510.56 576.942 1472.11 586.299Z" fill="#FFA412"/>
<path d="M1504.52 675.076C1504.32 673.43 1503.92 672.01 1503.3 670.812C1502.68 669.614 1501.79 668.57 1500.61 667.678C1499.43 666.788 1497.96 666.013 1496.19 665.352C1494.42 664.692 1492.28 664.096 1489.78 663.566C1485.47 662.617 1481.53 661.553 1477.96 660.376C1474.4 659.198 1471.28 657.717 1468.63 655.932C1465.97 654.147 1463.81 651.945 1462.15 649.323C1460.48 646.703 1459.42 643.472 1458.95 639.633C1458.55 636.303 1458.77 633.194 1459.62 630.309C1460.47 627.425 1461.86 624.831 1463.81 622.526C1465.76 620.223 1468.18 618.251 1471.08 616.605C1473.99 614.963 1477.32 613.733 1481.07 612.92L1479.55 600.344L1489.67 599.117L1491.21 611.869C1494.9 611.901 1498.3 612.462 1501.43 613.553C1504.56 614.646 1507.3 616.223 1509.65 618.282C1511.99 620.345 1513.92 622.884 1515.42 625.902C1516.92 628.922 1517.9 632.389 1518.38 636.306L1500.09 638.522C1499.52 633.821 1498.05 630.431 1495.68 628.352C1493.31 626.276 1490.38 625.448 1486.88 625.872C1484.98 626.102 1483.38 626.565 1482.07 627.261C1480.76 627.955 1479.72 628.818 1478.95 629.845C1478.18 630.873 1477.65 632.039 1477.38 633.344C1477.11 634.65 1477.07 636.027 1477.24 637.477C1477.42 638.927 1477.79 640.213 1478.35 641.336C1478.91 642.461 1479.77 643.46 1480.93 644.334C1482.08 645.208 1483.57 645.982 1485.38 646.656C1487.2 647.33 1489.43 647.984 1492.07 648.619C1496.35 649.65 1500.26 650.767 1503.81 651.967C1507.36 653.167 1510.46 654.669 1513.12 656.473C1515.78 658.28 1517.94 660.492 1519.6 663.112C1521.27 665.735 1522.33 668.945 1522.79 672.745C1523.21 676.193 1522.98 679.361 1522.11 682.248C1521.24 685.138 1519.83 687.714 1517.88 689.976C1515.93 692.241 1513.48 694.168 1510.53 695.758C1507.57 697.348 1504.22 698.549 1500.47 699.361L1501.89 711.056L1491.83 712.275L1490.42 700.639C1486.87 700.711 1483.39 700.357 1479.98 699.577C1476.57 698.798 1473.47 697.455 1470.67 695.549C1467.87 693.643 1465.51 691.096 1463.58 687.909C1461.65 684.724 1460.4 680.78 1459.84 676.079L1478.12 673.864C1478.46 676.645 1479.13 678.921 1480.13 680.684C1481.14 682.452 1482.36 683.815 1483.81 684.772C1485.25 685.73 1486.83 686.334 1488.55 686.582C1490.27 686.832 1492 686.849 1493.73 686.641C1495.71 686.401 1497.42 685.936 1498.85 685.245C1500.29 684.555 1501.46 683.697 1502.36 682.672C1503.26 681.649 1503.89 680.489 1504.25 679.193C1504.61 677.898 1504.7 676.527 1504.52 675.076Z" fill="#FFA412"/>
<path d="M1848.17 437.423C1846.4 392.399 1881.46 354.465 1926.49 352.695C1971.51 350.926 2009.45 385.99 2011.22 431.013C2012.99 476.037 1977.92 513.971 1932.9 515.742C1887.87 517.511 1849.94 482.446 1848.17 437.423Z" fill="#FFB93E"/>
<path d="M1932.65 509.458C1912.81 510.238 1893.85 503.245 1879.27 489.767C1864.69 476.29 1856.23 457.941 1855.45 438.102C1854.68 418.262 1861.67 399.305 1875.15 384.726C1888.62 370.145 1906.97 361.686 1926.81 360.907C1946.65 360.127 1965.61 367.119 1980.19 380.596C1994.77 394.074 2003.23 412.422 2004.01 432.262C2004.79 452.102 1997.79 471.058 1984.32 485.638C1970.84 500.22 1952.49 508.678 1932.65 509.458ZM1926.99 365.337C1888.47 366.85 1858.37 399.415 1859.89 437.927C1861.4 476.441 1893.96 506.541 1932.48 505.029C1970.99 503.513 2001.09 470.949 1999.58 432.436C1998.06 393.924 1965.5 363.822 1926.99 365.337Z" fill="#FFA412"/>
<path d="M1940.8 456.337C1940.93 454.728 1940.82 453.293 1940.46 452.031C1940.1 450.769 1939.45 449.599 1938.5 448.521C1937.54 447.444 1936.28 446.418 1934.72 445.447C1933.16 444.476 1931.23 443.496 1928.95 442.505C1925.02 440.768 1921.46 438.993 1918.29 437.181C1915.11 435.368 1912.42 433.354 1910.23 431.137C1908.04 428.919 1906.41 426.401 1905.32 423.577C1904.24 420.755 1903.84 417.465 1904.14 413.71C1904.4 410.454 1905.21 407.529 1906.57 404.938C1907.94 402.349 1909.78 400.141 1912.08 398.317C1914.38 396.495 1917.08 395.079 1920.17 394.07C1923.25 393.06 1926.67 392.53 1930.41 392.478L1931.38 380.178L1941.28 380.96L1940.3 393.431C1943.81 394.173 1946.95 395.366 1949.72 397.011C1952.5 398.656 1954.81 400.689 1956.65 403.11C1958.49 405.532 1959.84 408.326 1960.69 411.498C1961.54 414.669 1961.81 418.171 1961.51 422.001L1943.63 420.588C1943.99 415.992 1943.24 412.472 1941.38 410.03C1939.52 407.59 1936.88 406.233 1933.45 405.963C1931.6 405.817 1929.98 405.949 1928.6 406.361C1927.21 406.773 1926.06 407.394 1925.12 408.225C1924.18 409.058 1923.46 410.071 1922.95 411.265C1922.44 412.457 1922.13 413.764 1922.01 415.182C1921.9 416.6 1922.01 417.899 1922.33 419.08C1922.65 420.263 1923.28 421.382 1924.21 422.439C1925.14 423.496 1926.41 424.521 1928.02 425.515C1929.62 426.508 1931.62 427.563 1934.02 428.679C1937.91 430.489 1941.43 432.309 1944.58 434.139C1947.74 435.969 1950.41 438.002 1952.6 440.237C1954.79 442.474 1956.42 445.004 1957.51 447.825C1958.59 450.65 1958.99 453.92 1958.7 457.637C1958.43 461.007 1957.6 463.99 1956.22 466.577C1954.83 469.167 1952.99 471.354 1950.69 473.137C1948.39 474.923 1945.67 476.29 1942.55 477.238C1939.42 478.187 1935.99 478.686 1932.25 478.738L1931.35 490.176L1921.51 489.399L1922.41 478.02C1919.01 477.404 1915.76 476.396 1912.65 474.995C1909.55 473.593 1906.84 471.712 1904.54 469.351C1902.24 466.993 1900.47 464.105 1899.25 460.693C1898.02 457.28 1897.59 453.274 1897.95 448.676L1915.84 450.089C1915.62 452.809 1915.82 455.111 1916.44 456.989C1917.06 458.871 1917.97 460.407 1919.16 461.6C1920.35 462.792 1921.74 463.674 1923.34 464.243C1924.93 464.813 1926.58 465.163 1928.27 465.298C1930.21 465.451 1931.93 465.336 1933.43 464.954C1934.94 464.572 1936.22 463.979 1937.28 463.176C1938.34 462.373 1939.16 461.387 1939.75 460.219C1940.34 459.048 1940.69 457.756 1940.8 456.337Z" fill="#FFA412"/>
<path d="M1733.05 582.146C1732.5 551.071 1757.25 525.434 1788.32 524.885C1819.39 524.336 1845.03 549.081 1845.58 580.156C1846.13 611.23 1821.38 636.867 1790.31 637.416C1759.23 637.965 1733.6 613.221 1733.05 582.146Z" fill="#FFB93E"/>
<path d="M1790.23 633.08C1776.54 633.323 1763.57 628.218 1753.72 618.706C1743.86 609.194 1738.3 596.415 1738.06 582.723C1737.82 569.03 1742.92 556.062 1752.44 546.208C1761.95 536.355 1774.73 530.795 1788.42 530.553C1802.11 530.31 1815.08 535.415 1824.93 544.927C1834.79 554.439 1840.35 567.217 1840.59 580.91C1840.83 594.602 1835.73 607.571 1826.22 617.424C1816.7 627.278 1803.93 632.838 1790.23 633.08ZM1788.47 533.61C1761.89 534.08 1740.65 556.088 1741.12 582.668C1741.59 609.249 1763.6 630.492 1790.18 630.022C1816.76 629.551 1838 607.544 1837.53 580.963C1837.06 554.384 1815.06 533.14 1788.47 533.61Z" fill="#FFA412"/>
<path d="M1796.65 596.569C1796.76 595.462 1796.7 594.47 1796.47 593.595C1796.24 592.719 1795.81 591.903 1795.17 591.145C1794.53 590.388 1793.68 589.663 1792.61 588.969C1791.55 588.277 1790.24 587.571 1788.68 586.853C1785.99 585.597 1783.57 584.32 1781.4 583.024C1779.24 581.726 1777.42 580.297 1775.94 578.735C1774.46 577.174 1773.37 575.413 1772.67 573.45C1771.96 571.487 1771.74 569.213 1772 566.628C1772.22 564.386 1772.83 562.382 1773.81 560.615C1774.79 558.849 1776.09 557.354 1777.7 556.131C1779.32 554.909 1781.2 553.973 1783.34 553.322C1785.49 552.673 1787.85 552.357 1790.43 552.378L1791.28 543.91L1798.1 544.597L1797.23 553.184C1799.64 553.747 1801.79 554.617 1803.68 555.791C1805.57 556.969 1807.13 558.404 1808.37 560.101C1809.6 561.798 1810.49 563.747 1811.03 565.945C1811.57 568.144 1811.7 570.564 1811.44 573.2L1799.13 571.961C1799.45 568.796 1798.98 566.357 1797.73 564.646C1796.49 562.935 1794.68 561.96 1792.33 561.723C1791.05 561.595 1789.93 561.663 1788.97 561.925C1788.02 562.188 1787.21 562.599 1786.55 563.158C1785.89 563.718 1785.37 564.406 1785.01 565.222C1784.64 566.037 1784.4 566.932 1784.3 567.909C1784.21 568.886 1784.26 569.783 1784.46 570.602C1784.67 571.423 1785.08 572.204 1785.71 572.947C1786.34 573.689 1787.2 574.415 1788.29 575.125C1789.38 575.835 1790.74 576.591 1792.38 577.396C1795.03 578.702 1797.43 580.01 1799.58 581.318C1801.73 582.629 1803.54 584.069 1805.02 585.643C1806.5 587.218 1807.59 588.988 1808.29 590.95C1809 592.914 1809.22 595.175 1808.97 597.733C1808.73 600.053 1808.12 602.097 1807.12 603.861C1806.13 605.627 1804.82 607.107 1803.21 608.304C1801.6 609.5 1799.71 610.403 1797.54 611.01C1795.37 611.616 1792.99 611.909 1790.41 611.89L1789.62 619.764L1782.85 619.081L1783.64 611.246C1781.3 610.772 1779.08 610.028 1776.96 609.015C1774.84 608.001 1773 606.664 1771.44 605.002C1769.89 603.34 1768.72 601.324 1767.92 598.952C1767.13 596.58 1766.89 593.811 1767.21 590.647L1779.52 591.886C1779.33 593.76 1779.44 595.349 1779.84 596.655C1780.24 597.96 1780.84 599.035 1781.64 599.875C1782.45 600.715 1783.39 601.344 1784.49 601.76C1785.58 602.177 1786.7 602.443 1787.87 602.561C1789.2 602.696 1790.39 602.642 1791.43 602.401C1792.48 602.16 1793.37 601.77 1794.11 601.231C1794.86 600.694 1795.44 600.026 1795.86 599.23C1796.29 598.432 1796.55 597.547 1796.65 596.569Z" fill="#FFA412"/>
<path d="M1496.07 408.446C1472.24 336.45 1511.27 258.763 1583.27 234.924C1655.26 211.085 1732.95 250.123 1756.79 322.118C1780.63 394.112 1741.59 471.8 1669.59 495.639C1597.6 519.478 1519.91 480.439 1496.07 408.446Z" fill="#FFB93E"/>
<path d="M1666.27 485.59C1634.54 496.095 1600.63 493.617 1570.77 478.613C1540.91 463.608 1518.68 437.873 1508.17 406.148C1497.67 374.423 1500.15 340.507 1515.15 310.647C1530.15 280.787 1555.89 258.556 1587.61 248.052C1619.34 237.548 1653.25 240.026 1683.12 255.031C1712.98 270.036 1735.21 295.77 1745.71 327.495C1756.21 359.22 1753.74 393.137 1738.73 422.997C1723.73 452.857 1697.99 475.087 1666.27 485.59ZM1589.96 255.137C1528.38 275.528 1494.87 342.22 1515.26 403.803C1535.65 465.385 1602.34 498.898 1663.92 478.506C1725.51 458.115 1759.02 391.424 1738.63 329.842C1718.23 268.258 1651.54 234.746 1589.96 255.137Z" fill="#FFA412"/>
<path d="M1654.71 395.879C1654.16 393.218 1653.31 390.95 1652.14 389.075C1650.98 387.2 1649.37 385.613 1647.33 384.313C1645.29 383.014 1642.78 381.943 1639.8 381.099C1636.82 380.256 1633.25 379.567 1629.08 379.031C1621.92 378.053 1615.34 376.837 1609.36 375.386C1603.38 373.934 1598.1 371.927 1593.52 369.364C1588.94 366.799 1585.12 363.488 1582.05 359.426C1578.98 355.365 1576.81 350.23 1575.54 344.018C1574.44 338.631 1574.39 333.524 1575.4 328.696C1576.4 323.87 1578.34 319.446 1581.21 315.424C1584.09 311.403 1587.79 307.857 1592.31 304.785C1596.84 301.715 1602.12 299.264 1608.14 297.44L1603.98 277.094L1620.36 273.746L1624.57 294.376C1630.59 293.938 1636.24 294.404 1641.49 295.771C1646.75 297.14 1651.43 299.353 1655.54 302.408C1659.64 305.467 1663.12 309.36 1665.98 314.092C1668.83 318.826 1670.9 324.362 1672.19 330.699L1642.62 336.746C1641.06 329.141 1638.21 323.797 1634.06 320.715C1629.91 317.637 1625.01 316.673 1619.34 317.83C1616.27 318.459 1613.72 319.428 1611.68 320.737C1609.63 322.044 1608.05 323.591 1606.92 325.373C1605.79 327.156 1605.09 329.131 1604.82 331.299C1604.56 333.467 1604.66 335.724 1605.14 338.069C1605.62 340.414 1606.4 342.468 1607.47 344.229C1608.54 345.992 1610.07 347.508 1612.08 348.784C1614.08 350.058 1616.61 351.127 1619.66 351.987C1622.72 352.848 1626.45 353.621 1630.85 354.305C1637.97 355.424 1644.51 356.729 1650.47 358.217C1656.42 359.708 1661.7 361.75 1666.28 364.346C1670.86 366.942 1674.69 370.272 1677.76 374.329C1680.82 378.392 1682.99 383.497 1684.24 389.644C1685.38 395.22 1685.44 400.428 1684.4 405.26C1683.36 410.096 1681.4 414.491 1678.51 418.448C1675.62 422.406 1671.87 425.882 1667.26 428.872C1662.65 431.862 1657.33 434.268 1651.3 436.096L1655.17 455.013L1638.9 458.341L1635.05 439.517C1629.27 440.106 1623.54 439.988 1617.86 439.168C1612.19 438.347 1606.94 436.565 1602.11 433.82C1597.28 431.076 1593.09 427.23 1589.52 422.281C1585.94 417.332 1583.38 411.055 1581.83 403.449L1611.41 397.403C1612.33 401.903 1613.72 405.53 1615.6 408.281C1617.48 411.034 1619.66 413.098 1622.14 414.471C1624.63 415.846 1627.29 416.622 1630.14 416.799C1632.98 416.978 1635.8 416.778 1638.6 416.206C1641.81 415.551 1644.54 414.565 1646.79 413.245C1649.04 411.927 1650.84 410.371 1652.18 408.577C1653.52 406.785 1654.4 404.807 1654.81 402.641C1655.22 400.478 1655.19 398.225 1654.71 395.879Z" fill="#FFA412"/>
<path d="M1084.48 327.525C1072.13 330.608 1060.35 333.551 1049.33 335.437C1013.64 341.541 986.067 336.506 974.183 288.93C962.299 241.348 984.267 223.94 1018.63 212.545C1029.25 209.028 1041.03 206.085 1053.37 203.002C1079.75 196.413 1108.95 199.322 1132.2 206.956C1155.08 214.474 1172.2 226.565 1175.23 238.714C1178.69 252.548 1169.27 271.282 1152.51 288.248C1135.47 305.508 1110.86 320.936 1084.48 327.525Z" fill="#739AF0"/>
<path d="M1018.63 212.545L978.096 186.072L914.098 199.708L980.57 246.407L1018.63 212.545Z" fill="#163560"/>
<path d="M1049.23 335.049L1025.9 377.474L963.011 395.531L999.717 323.061L1049.23 335.049Z" fill="#163560"/>
<path d="M1049.33 335.437C1013.64 341.541 986.067 336.506 974.183 288.93C962.299 241.348 984.267 223.94 1018.63 212.545L1049.33 335.437Z" fill="#163560"/>
<path d="M890.855 309.741C890.855 309.741 908.67 268.231 939.857 274.624C971.67 281.144 967.661 315.421 943.787 318.566C919.913 321.711 904.782 306.262 890.855 309.741Z" fill="#F77D48"/>
<path d="M1080.57 228.701C1097.05 224.584 1113.75 234.608 1117.87 251.09C1121.98 267.572 1111.96 284.27 1095.48 288.387C1079 292.503 1062.3 282.48 1058.18 265.998C1054.06 249.516 1064.09 232.818 1080.57 228.701Z" fill="#163560"/>
<path d="M1088.02 291.358C1073.32 291.358 1059.91 281.389 1056.19 266.495C1051.81 248.943 1062.52 231.096 1080.07 226.712C1097.62 222.327 1115.47 233.041 1119.85 250.594C1121.98 259.096 1120.67 267.917 1116.15 275.432C1111.64 282.946 1104.48 288.253 1095.97 290.377C1093.32 291.041 1090.65 291.358 1088.02 291.358ZM1088.02 229.832C1085.72 229.832 1083.39 230.11 1081.07 230.692C1073.63 232.55 1067.36 237.194 1063.41 243.769C1059.46 250.344 1058.31 258.062 1060.17 265.502C1064.01 280.859 1079.62 290.236 1094.98 286.397C1102.42 284.54 1108.69 279.895 1112.64 273.32C1116.58 266.745 1117.74 259.027 1115.88 251.587C1112.62 238.556 1100.88 229.832 1088.02 229.832Z" fill="#BDD1F9"/>
<path d="M1152.51 288.248L1132.21 206.956C1155.08 214.474 1172.2 226.565 1175.23 238.714C1178.69 252.548 1169.27 271.282 1152.51 288.248Z" fill="#F77D48"/>
<path d="M2072.35 734.632C2072.35 734.632 2134.5 799.074 2137.44 823.329C2140.38 847.584 2107.67 885.447 2107.67 885.447L2072.35 734.632Z" fill="#ED7D2B"/>
<path d="M2044.26 1402.5C2044.26 1402.5 2042.07 1436.68 2035.46 1437.15C2034.58 1437.22 2001.91 1437.15 2001.91 1437.15L1960.21 1436.81C1960.21 1436.81 1960.5 1426.77 1972.7 1424.67C1984.89 1422.57 2005.31 1414.05 2012.73 1397.95C2020.54 1381.02 2044.26 1402.5 2044.26 1402.5Z" fill="#2E5A99"/>
<path d="M2137.15 1402.7C2137.15 1402.7 2134.95 1436.88 2128.34 1437.36C2127.46 1437.42 2094.79 1437.35 2094.79 1437.35L2053.09 1437.02C2053.09 1437.02 2053.39 1426.97 2065.58 1424.87C2077.77 1422.77 2098.19 1414.25 2105.61 1398.16C2113.42 1381.23 2137.15 1402.7 2137.15 1402.7Z" fill="#18417C"/>
<path d="M1998.88 1034.98C1998.88 1034.98 2009.64 1104.76 2050.05 1228.67C2090.47 1352.58 2095.9 1406.21 2095.9 1406.21L2139.54 1405.08C2139.54 1405.08 2140.21 1269.76 2121.6 1207.45C2102.98 1145.14 2118.04 982.967 2118.04 982.967L1998.88 1034.98Z" fill="#163560"/>
<path d="M1977.75 986.484C1977.75 986.484 1975.97 1091.59 1993.88 1220.7C2011.79 1349.8 2005.5 1404.57 2005.5 1404.57L2049.06 1406.11C2049.06 1406.11 2075.37 1277.06 2068.05 1212.44C2060.72 1147.83 2104.17 990.856 2104.17 990.856L1977.75 986.484Z" fill="#1C468A"/>
<path d="M2062.6 740.688L2039.36 755.853L2005.84 749.529C2006.31 746.822 2008.54 735.605 2010.58 725.446C2010.71 724.846 2010.83 724.247 2010.94 723.662C2012.69 715.016 2014.2 707.591 2014.2 707.591L2045.55 693.836L2057.24 688.71C2057.21 688.892 2056.32 698.305 2056.19 699.68C2053.95 724.085 2062.6 740.688 2062.6 740.688Z" fill="#FFB27D"/>
<path d="M2014.46 732.905C2015.11 732.632 2054.88 720.992 2059.19 722.428C2063.51 723.862 2066.04 732.221 2066.04 732.221L2001.01 746.775C2001.01 746.775 2006.15 736.384 2014.46 732.905Z" fill="#ED7D2B"/>
<path d="M2120.89 999.772C2114.09 1030.49 2001.98 1033.88 1973.14 1005.93C1969.86 1002.74 1969.73 987.951 1971.01 968.01C1973.52 929.048 1981.44 870.45 1981.81 840.504C1981.99 826.042 1984 811.255 1986.68 797.829C1992.37 769.215 2001.01 746.769 2001.01 746.769C2001.01 746.769 2055.8 729.187 2066.04 732.219C2115.37 746.831 2127.69 969.058 2120.89 999.772Z" fill="#F99746"/>
<path d="M1971.01 968.01C1973.52 929.048 1981.44 870.45 1981.81 840.504C1981.99 826.042 1984 811.255 1986.68 797.829L2019.63 792.088C2019.63 792.088 2051.55 923.695 1971.01 968.01Z" fill="#ED7D2B"/>
<path d="M1988.97 913.735C1988.97 913.735 1991.2 919.106 1986.48 922.7C1981.76 926.293 1978.69 932.124 1979.76 936.392C1980.83 940.66 1991.16 947.642 1994.74 946.528C1998.33 945.414 2005.64 939.81 2004.86 937.559C2004.08 935.306 2009.81 917.822 2001.08 911.067C1992.36 904.312 1988.97 913.735 1988.97 913.735Z" fill="#FFB27D"/>
<path d="M2026.18 738.941C2026.18 738.941 1994.04 744.882 1968.37 782.548C1942.69 820.212 1925.79 848.22 1930.47 861.824C1935.16 875.43 1978.04 922.674 1985.45 922.69C1992.85 922.706 2004.82 917.342 2005.52 905.219C2005.52 905.219 1975.36 859.802 1981.34 853.023C1983.89 850.126 2020.69 820.381 2025.91 833.865C2034.54 856.173 2026.18 738.941 2026.18 738.941Z" fill="#F99746"/>
<path d="M2053.84 700.105C2046.94 711.744 2021.28 721.764 2010.58 725.446C2010.71 724.846 2010.83 724.247 2010.94 723.662C2012.69 715.016 2014.2 707.591 2014.2 707.591L2045.55 693.836C2052.48 693.757 2056.69 695.316 2053.84 700.105Z" fill="#FCA56B"/>
<path d="M2002.39 705.66C2002.39 705.66 2052.82 721.51 2062.21 689.955C2071.6 658.4 2084.43 639.194 2052.63 627.74C2020.83 616.286 2010.96 626.457 2005.27 636.226C1999.57 645.998 1989.52 700.723 2002.39 705.66Z" fill="#FFB27D"/>
<path d="M2007.26 633.19C2007.26 633.19 2010.39 669.939 2018 668.361C2025.6 666.782 2032.49 665.615 2031.36 676.688C2030.22 687.761 2019.65 700.529 2043.07 702.539C2066.48 704.549 2100.28 644.229 2093.87 632.78C2075.38 599.746 1980.51 592.882 2007.26 633.19Z" fill="#163560"/>
<path d="M1762.74 1415.95V1429.17C1762.74 1430.22 1762.35 1431.2 1761.69 1432.01C1761.01 1432.86 1760.01 1433.54 1758.85 1433.91C1758.49 1434.04 1758.12 1434.13 1757.74 1434.18C1757.39 1434.24 1757.04 1434.26 1756.67 1434.26H1505.95C1502.92 1434.26 1500.39 1432.37 1499.94 1429.93C1499.92 1429.76 1499.89 1429.6 1499.89 1429.43C1499.89 1429.34 1499.88 1429.25 1499.88 1429.17V1415.95C1499.88 1415.86 1499.89 1415.77 1499.89 1415.69C1499.89 1415.52 1499.92 1415.35 1499.94 1415.19C1500.39 1412.74 1502.92 1410.86 1505.95 1410.86H1756.67C1757.04 1410.86 1757.39 1410.88 1757.74 1410.93C1758.12 1410.99 1758.49 1411.08 1758.85 1411.2C1760.01 1411.58 1761.01 1412.25 1761.69 1413.1C1762.35 1413.92 1762.74 1414.9 1762.74 1415.95Z" fill="#FFB93E"/>
<path d="M1639.62 1434.26H1505.3C1502.81 1434.26 1500.71 1432.65 1500.09 1430.49C1500.03 1430.3 1499.98 1430.12 1499.94 1429.93C1499.92 1429.76 1499.9 1429.6 1499.89 1429.42C1499.89 1429.34 1499.88 1429.25 1499.88 1429.17V1415.94C1499.88 1415.86 1499.89 1415.77 1499.89 1415.69C1499.9 1415.51 1499.92 1415.35 1499.94 1415.19C1499.98 1414.99 1500.03 1414.81 1500.09 1414.62C1500.71 1412.46 1502.81 1410.85 1505.3 1410.85H1623.13C1625.01 1417.75 1629.39 1427.27 1639.62 1434.26Z" fill="#FFA412"/>
<path d="M1732.23 1410.85H1729.38V1434.26H1732.23V1410.85Z" fill="#FFA412"/>
<path d="M1722.58 1410.85H1719.73V1434.26H1722.58V1410.85Z" fill="#FFA412"/>
<path d="M1711.01 1410.85H1708.17V1434.26H1711.01V1410.85Z" fill="#FFA412"/>
<path d="M1693.28 1410.85H1690.43V1434.26H1693.28V1410.85Z" fill="#FFA412"/>
<path d="M1674.54 1410.85H1671.69V1434.26H1674.54V1410.85Z" fill="#FFA412"/>
<path d="M1645.79 1410.85H1642.94V1434.26H1645.79V1410.85Z" fill="#FFA412"/>
<path d="M1618.88 1410.85H1616.03V1434.26H1618.88V1410.85Z" fill="#FFA412"/>
<path d="M1594.85 1410.85H1592V1434.26H1594.85V1410.85Z" fill="#FFA412"/>
<path d="M1741.41 1410.85H1738.56V1434.26H1741.41V1410.85Z" fill="#FFA412"/>
<path d="M1747.48 1410.85H1744.62V1434.26H1747.48V1410.85Z" fill="#FFA412"/>
<path d="M1753.33 1410.85H1750.48V1434.26H1753.33V1410.85Z" fill="#FFA412"/>
<path d="M1757.74 1410.93V1434.18C1757.39 1434.23 1757.03 1434.26 1756.67 1434.26H1754.89V1410.85H1756.67C1757.03 1410.85 1757.39 1410.88 1757.74 1410.93Z" fill="#FFA412"/>
<path d="M1761.7 1413.1V1432.01C1761.01 1432.86 1760.01 1433.54 1758.85 1433.92V1411.2C1760.01 1411.57 1761.01 1412.25 1761.7 1413.1Z" fill="#FFA412"/>
<path d="M1735.93 1392.54V1405.76C1735.93 1406.81 1735.54 1407.79 1734.89 1408.61C1734.72 1408.82 1734.53 1409.02 1734.32 1409.21C1733.7 1409.78 1732.92 1410.23 1732.04 1410.51C1731.69 1410.63 1731.32 1410.72 1730.93 1410.77C1730.59 1410.83 1730.23 1410.86 1729.87 1410.86H1479.14C1476.12 1410.86 1473.59 1408.96 1473.14 1406.52C1473.12 1406.35 1473.1 1406.19 1473.09 1406.02C1473.08 1405.94 1473.08 1405.85 1473.08 1405.76V1392.54C1473.08 1392.46 1473.08 1392.36 1473.09 1392.28C1473.1 1392.11 1473.12 1391.95 1473.14 1391.78C1473.59 1389.34 1476.12 1387.45 1479.14 1387.45H1729.87C1730.02 1387.45 1730.19 1387.45 1730.35 1387.47C1730.41 1387.47 1730.46 1387.48 1730.52 1387.48C1730.53 1387.48 1730.54 1387.48 1730.55 1387.48C1730.62 1387.48 1730.7 1387.49 1730.78 1387.51C1730.83 1387.52 1730.88 1387.52 1730.93 1387.53C1731.32 1387.59 1731.69 1387.67 1732.04 1387.79C1732.26 1387.86 1732.46 1387.94 1732.66 1388.02H1732.66C1732.8 1388.09 1732.93 1388.15 1733.06 1388.21C1733.13 1388.25 1733.2 1388.3 1733.27 1388.34C1733.34 1388.38 1733.42 1388.42 1733.48 1388.46C1733.74 1388.62 1733.99 1388.8 1734.21 1389C1734.29 1389.07 1734.36 1389.14 1734.43 1389.2C1734.47 1389.24 1734.51 1389.28 1734.55 1389.31C1734.57 1389.34 1734.6 1389.36 1734.61 1389.39L1734.67 1389.44C1734.75 1389.52 1734.83 1389.6 1734.9 1389.7C1735.54 1390.51 1735.93 1391.49 1735.93 1392.54Z" fill="#FFB93E"/>
<path d="M1612.81 1410.86H1478.49C1476 1410.86 1473.91 1409.24 1473.29 1407.07C1473.23 1406.89 1473.17 1406.71 1473.14 1406.52C1473.12 1406.35 1473.09 1406.19 1473.09 1406.02C1473.08 1405.94 1473.08 1405.85 1473.08 1405.76V1392.54C1473.08 1392.46 1473.08 1392.36 1473.09 1392.28C1473.09 1392.11 1473.12 1391.95 1473.14 1391.78C1473.17 1391.59 1473.23 1391.41 1473.29 1391.22C1473.91 1389.06 1476 1387.44 1478.49 1387.44H1596.32C1596.36 1387.64 1596.42 1387.83 1596.48 1388.02C1598.45 1394.86 1602.87 1404.06 1612.81 1410.86Z" fill="#FFA412"/>
<path d="M1705.42 1387.45H1702.57V1410.85H1705.42V1387.45Z" fill="#FFA412"/>
<path d="M1695.78 1387.45H1692.93V1410.85H1695.78V1387.45Z" fill="#FFA412"/>
<path d="M1684.21 1387.45H1681.36V1410.85H1684.21V1387.45Z" fill="#FFA412"/>
<path d="M1666.48 1387.45H1663.63V1410.85H1666.48V1387.45Z" fill="#FFA412"/>
<path d="M1647.73 1387.45H1644.88V1410.85H1647.73V1387.45Z" fill="#FFA412"/>
<path d="M1618.99 1387.45H1616.14V1410.85H1618.99V1387.45Z" fill="#FFA412"/>
<path d="M1592.07 1387.45H1589.23V1410.85H1592.07V1387.45Z" fill="#FFA412"/>
<path d="M1568.04 1387.45H1565.19V1410.85H1568.04V1387.45Z" fill="#FFA412"/>
<path d="M1714.6 1387.45H1711.75V1410.85H1714.6V1387.45Z" fill="#FFA412"/>
<path d="M1720.67 1387.45H1717.82V1410.85H1720.67V1387.45Z" fill="#FFA412"/>
<path d="M1726.53 1387.45H1723.68V1410.85H1726.53V1387.45Z" fill="#FFA412"/>
<path d="M1730.93 1387.53V1410.77C1730.58 1410.82 1730.23 1410.85 1729.86 1410.85H1728.08V1387.45H1729.86C1730.23 1387.45 1730.58 1387.47 1730.93 1387.53Z" fill="#FFA412"/>
<path d="M1734.89 1389.7V1408.6C1734.2 1409.46 1733.21 1410.13 1732.04 1410.51V1387.79C1733.21 1388.17 1734.2 1388.84 1734.89 1389.7Z" fill="#FFA412"/>
<path d="M1748.88 1369.71V1382.93C1748.88 1383.98 1748.5 1384.96 1747.84 1385.78C1747.15 1386.63 1746.16 1387.3 1745 1387.68C1744.64 1387.8 1744.27 1387.88 1743.88 1387.95C1743.54 1387.99 1743.18 1388.02 1742.82 1388.02H1492.09C1491.09 1388.02 1490.14 1387.81 1489.3 1387.45C1487.64 1386.72 1486.42 1385.35 1486.1 1383.75C1486.08 1383.64 1486.07 1383.53 1486.06 1383.42C1486.05 1383.35 1486.04 1383.27 1486.04 1383.19C1486.03 1383.11 1486.03 1383.02 1486.03 1382.93V1369.71C1486.03 1369.63 1486.03 1369.54 1486.04 1369.45C1486.05 1369.29 1486.06 1369.12 1486.1 1368.96C1486.54 1366.51 1489.07 1364.62 1492.09 1364.62H1742.82C1743.18 1364.62 1743.54 1364.64 1743.88 1364.7C1744.27 1364.75 1744.65 1364.84 1745 1364.96C1746.16 1365.34 1747.15 1366.02 1747.84 1366.87C1748.5 1367.68 1748.88 1368.66 1748.88 1369.71Z" fill="#FFB93E"/>
<path d="M1625.77 1388.02H1491.44C1490.54 1388.02 1489.7 1387.81 1488.95 1387.44C1487.47 1386.72 1486.38 1385.35 1486.1 1383.75C1486.08 1383.64 1486.07 1383.53 1486.05 1383.42C1486.05 1383.35 1486.04 1383.27 1486.04 1383.19C1486.03 1383.1 1486.03 1383.02 1486.03 1382.93V1369.71C1486.03 1369.63 1486.03 1369.54 1486.04 1369.45C1486.05 1369.29 1486.06 1369.12 1486.09 1368.96C1486.13 1368.77 1486.18 1368.59 1486.23 1368.41C1486.85 1366.24 1488.95 1364.62 1491.44 1364.62H1609.27C1611.1 1371.32 1615.3 1380.52 1624.94 1387.44C1625.21 1387.64 1625.48 1387.84 1625.77 1388.02Z" fill="#FFA412"/>
<path d="M1718.38 1364.62H1715.53V1388.02H1718.38V1364.62Z" fill="#FFA412"/>
<path d="M1708.73 1364.62H1705.88V1388.02H1708.73V1364.62Z" fill="#FFA412"/>
<path d="M1697.16 1364.62H1694.31V1388.02H1697.16V1364.62Z" fill="#FFA412"/>
<path d="M1679.43 1364.62H1676.58V1388.02H1679.43V1364.62Z" fill="#FFA412"/>
<path d="M1660.68 1364.62H1657.83V1388.02H1660.68V1364.62Z" fill="#FFA412"/>
<path d="M1631.94 1364.62H1629.09V1388.02H1631.94V1364.62Z" fill="#FFA412"/>
<path d="M1605.03 1364.62H1602.18V1388.02H1605.03V1364.62Z" fill="#FFA412"/>
<path d="M1581 1364.62H1578.15V1388.02H1581V1364.62Z" fill="#FFA412"/>
<path d="M1727.56 1364.62H1724.71V1388.02H1727.56V1364.62Z" fill="#FFA412"/>
<path d="M1733.62 1364.62H1730.77V1388.02H1733.62V1364.62Z" fill="#FFA412"/>
<path d="M1739.48 1364.62H1736.63V1388.02H1739.48V1364.62Z" fill="#FFA412"/>
<path d="M1743.89 1364.7V1387.94C1743.54 1388 1743.18 1388.02 1742.82 1388.02H1741.04V1364.62H1742.82C1743.18 1364.62 1743.54 1364.65 1743.89 1364.7Z" fill="#FFA412"/>
<path d="M1747.84 1366.87V1385.77C1747.15 1386.63 1746.16 1387.3 1745 1387.68V1364.96C1746.16 1365.34 1747.15 1366.01 1747.84 1366.87Z" fill="#FFA412"/>
<path d="M1754.89 1346.31V1359.52C1754.89 1360.58 1754.5 1361.55 1753.85 1362.37C1753.76 1362.47 1753.67 1362.58 1753.57 1362.68C1753.09 1363.19 1752.51 1363.62 1751.84 1363.94C1751.58 1364.07 1751.29 1364.18 1751 1364.28C1750.64 1364.39 1750.28 1364.48 1749.89 1364.54C1749.72 1364.56 1749.55 1364.58 1749.37 1364.6C1749.19 1364.61 1749 1364.62 1748.82 1364.62H1498.1C1495.07 1364.62 1492.54 1362.73 1492.09 1360.28C1492.07 1360.12 1492.05 1359.95 1492.04 1359.79V1346.04C1492.2 1343.56 1494.48 1341.54 1497.38 1341.25C1497.62 1341.23 1497.86 1341.21 1498.1 1341.21H1748.82C1749 1341.21 1749.19 1341.22 1749.37 1341.23C1749.55 1341.25 1749.72 1341.27 1749.89 1341.3C1750.28 1341.35 1750.64 1341.44 1751 1341.56C1752.16 1341.93 1753.16 1342.61 1753.85 1343.46C1754.51 1344.27 1754.89 1345.25 1754.89 1346.31Z" fill="#FFB93E"/>
<path d="M1631.77 1364.62H1497.45C1494.96 1364.62 1492.87 1363.01 1492.24 1360.84C1492.18 1360.66 1492.13 1360.47 1492.09 1360.28C1492.07 1360.12 1492.05 1359.95 1492.04 1359.79V1346.04C1492.18 1343.57 1494.23 1341.54 1496.81 1341.25C1497.02 1341.23 1497.23 1341.21 1497.45 1341.21H1615.28C1615.28 1341.23 1615.29 1341.23 1615.29 1341.25C1617.18 1348.13 1621.56 1357.64 1631.77 1364.62Z" fill="#FFA412"/>
<path d="M1724.38 1341.21H1721.53V1364.62H1724.38V1341.21Z" fill="#FFA412"/>
<path d="M1714.74 1341.21H1711.89V1364.62H1714.74V1341.21Z" fill="#FFA412"/>
<path d="M1703.17 1341.21H1700.32V1364.62H1703.17V1341.21Z" fill="#FFA412"/>
<path d="M1685.44 1341.21H1682.59V1364.62H1685.44V1341.21Z" fill="#FFA412"/>
<path d="M1666.69 1341.21H1663.84V1364.62H1666.69V1341.21Z" fill="#FFA412"/>
<path d="M1637.95 1341.21H1635.1V1364.62H1637.95V1341.21Z" fill="#FFA412"/>
<path d="M1611.04 1341.21H1608.18V1364.62H1611.04V1341.21Z" fill="#FFA412"/>
<path d="M1587.01 1341.21H1584.15V1364.62H1587.01V1341.21Z" fill="#FFA412"/>
<path d="M1733.56 1341.21H1730.71V1364.62H1733.56V1341.21Z" fill="#FFA412"/>
<path d="M1739.63 1341.21H1736.78V1364.62H1739.63V1341.21Z" fill="#FFA412"/>
<path d="M1745.49 1341.21H1742.64V1364.62H1745.49V1341.21Z" fill="#FFA412"/>
<path d="M1749.89 1341.29V1364.54C1749.54 1364.59 1749.19 1364.62 1748.82 1364.62H1747.04V1341.21H1748.82C1749.19 1341.21 1749.54 1341.24 1749.89 1341.29Z" fill="#FFA412"/>
<path d="M1753.85 1343.46V1362.37C1753.16 1363.22 1752.17 1363.9 1751 1364.27V1341.55C1752.17 1341.93 1753.16 1342.6 1753.85 1343.46Z" fill="#FFA412"/>
<path d="M1736.45 1322.94V1336.15C1736.45 1337.21 1736.08 1338.18 1735.42 1338.99C1734.73 1339.86 1733.73 1340.53 1732.57 1340.91C1732.21 1341.02 1731.84 1341.11 1731.46 1341.16C1731.35 1341.19 1731.23 1341.2 1731.11 1341.21H1731.06C1731 1341.22 1730.94 1341.23 1730.88 1341.23C1730.82 1341.24 1730.77 1341.24 1730.71 1341.24C1730.6 1341.24 1730.5 1341.25 1730.39 1341.25H1479.67C1476.44 1341.25 1473.78 1339.1 1473.61 1336.42C1473.6 1336.33 1473.6 1336.25 1473.6 1336.15V1322.94C1473.6 1322.85 1473.6 1322.76 1473.61 1322.67C1473.61 1322.6 1473.62 1322.53 1473.63 1322.46C1473.87 1320.31 1475.73 1318.52 1478.18 1318C1478.23 1317.99 1478.29 1317.97 1478.36 1317.97C1478.78 1317.89 1479.22 1317.84 1479.67 1317.84H1730.39C1730.58 1317.84 1730.75 1317.85 1730.93 1317.86C1731.01 1317.87 1731.09 1317.88 1731.16 1317.89C1731.17 1317.89 1731.17 1317.89 1731.17 1317.89H1731.18C1731.28 1317.89 1731.37 1317.91 1731.46 1317.92C1731.84 1317.98 1732.22 1318.07 1732.57 1318.18C1733.73 1318.56 1734.73 1319.23 1735.42 1320.09C1736.08 1320.91 1736.45 1321.88 1736.45 1322.94Z" fill="#FFB93E"/>
<path d="M1613.34 1341.25H1479.02C1476.13 1341.25 1473.76 1339.1 1473.61 1336.42C1473.6 1336.33 1473.6 1336.25 1473.6 1336.15V1322.94C1473.6 1322.85 1473.6 1322.76 1473.61 1322.67C1473.61 1322.6 1473.62 1322.53 1473.63 1322.46C1473.85 1320.25 1475.58 1318.45 1477.83 1317.97C1477.9 1317.95 1477.98 1317.93 1478.06 1317.92C1478.37 1317.87 1478.7 1317.84 1479.02 1317.84H1596.84C1596.86 1317.9 1596.88 1317.95 1596.89 1318.01C1598.79 1324.87 1603.18 1334.29 1613.28 1341.21C1613.3 1341.23 1613.32 1341.23 1613.34 1341.25Z" fill="#FFA412"/>
<path d="M1705.95 1317.84H1703.1V1341.25H1705.95V1317.84Z" fill="#FFA412"/>
<path d="M1696.3 1317.84H1693.45V1341.25H1696.3V1317.84Z" fill="#FFA412"/>
<path d="M1684.74 1317.84H1681.89V1341.25H1684.74V1317.84Z" fill="#FFA412"/>
<path d="M1667.01 1317.84H1664.16V1341.25H1667.01V1317.84Z" fill="#FFA412"/>
<path d="M1648.26 1317.84H1645.41V1341.25H1648.26V1317.84Z" fill="#FFA412"/>
<path d="M1619.51 1317.84H1616.66V1341.25H1619.51V1317.84Z" fill="#FFA412"/>
<path d="M1592.6 1317.84H1589.75V1341.25H1592.6V1317.84Z" fill="#FFA412"/>
<path d="M1568.57 1317.84H1565.72V1341.25H1568.57V1317.84Z" fill="#FFA412"/>
<path d="M1715.13 1317.84H1712.28V1341.25H1715.13V1317.84Z" fill="#FFA412"/>
<path d="M1721.2 1317.84H1718.35V1341.25H1721.2V1317.84Z" fill="#FFA412"/>
<path d="M1727.05 1317.84H1724.2V1341.25H1727.05V1317.84Z" fill="#FFA412"/>
<path d="M1731.46 1317.92V1341.17C1731.11 1341.22 1730.76 1341.25 1730.39 1341.25H1728.61V1317.84H1730.39C1730.76 1317.84 1731.11 1317.87 1731.46 1317.92Z" fill="#FFA412"/>
<path d="M1735.42 1320.09V1339C1734.73 1339.85 1733.73 1340.53 1732.57 1340.9V1318.18C1733.73 1318.56 1734.73 1319.24 1735.42 1320.09Z" fill="#FFA412"/>
<path d="M1735.93 1299.7V1312.91C1735.93 1313.97 1735.54 1314.94 1734.89 1315.76C1734.72 1315.97 1734.53 1316.17 1734.32 1316.37C1733.7 1316.93 1732.92 1317.39 1732.04 1317.67C1731.76 1317.76 1731.47 1317.83 1731.18 1317.89H1731.17C1731.17 1317.89 1731.17 1317.89 1731.16 1317.89C1731.08 1317.9 1731.01 1317.92 1730.93 1317.93C1730.59 1317.98 1730.23 1318.01 1729.87 1318.01H1479.14C1478.88 1318.01 1478.62 1318 1478.36 1317.97C1478.25 1317.96 1478.15 1317.94 1478.06 1317.93C1475.51 1317.53 1473.49 1315.79 1473.13 1313.62C1473.11 1313.47 1473.09 1313.33 1473.09 1313.18C1473.08 1313.09 1473.08 1313 1473.08 1312.91V1299.7C1473.08 1299.61 1473.08 1299.52 1473.09 1299.43C1473.09 1299.27 1473.12 1299.1 1473.14 1298.94C1473.59 1296.5 1476.12 1294.6 1479.14 1294.6H1729.87C1730.02 1294.6 1730.19 1294.61 1730.34 1294.62C1730.37 1294.62 1730.39 1294.62 1730.41 1294.62C1730.45 1294.63 1730.5 1294.63 1730.55 1294.63C1730.62 1294.64 1730.7 1294.65 1730.78 1294.66C1730.83 1294.66 1730.88 1294.67 1730.93 1294.69C1731.32 1294.74 1731.69 1294.83 1732.04 1294.95C1732.26 1295.02 1732.46 1295.09 1732.65 1295.18H1732.66C1733.45 1295.53 1734.13 1296.01 1734.67 1296.59C1734.75 1296.68 1734.82 1296.76 1734.9 1296.85C1735.54 1297.66 1735.93 1298.64 1735.93 1299.7Z" fill="#FFB93E"/>
<path d="M1612.81 1318.01H1478.49C1478.39 1318.01 1478.28 1318 1478.18 1318C1478.06 1318 1477.94 1317.98 1477.83 1317.97C1475.4 1317.68 1473.46 1315.88 1473.13 1313.62C1473.11 1313.47 1473.09 1313.33 1473.09 1313.18C1473.08 1313.09 1473.08 1313 1473.08 1312.91V1299.7C1473.08 1299.61 1473.08 1299.52 1473.09 1299.43C1473.09 1299.27 1473.12 1299.1 1473.14 1298.94C1473.17 1298.75 1473.23 1298.56 1473.29 1298.38C1473.91 1296.22 1476 1294.6 1478.49 1294.6H1596.32C1596.36 1294.8 1596.42 1294.99 1596.48 1295.18C1598.43 1301.96 1602.79 1311.06 1612.57 1317.84C1612.65 1317.9 1612.73 1317.95 1612.81 1318.01Z" fill="#FFA412"/>
<path d="M1705.42 1294.6H1702.57V1318.01H1705.42V1294.6Z" fill="#FFA412"/>
<path d="M1695.78 1294.6H1692.93V1318.01H1695.78V1294.6Z" fill="#FFA412"/>
<path d="M1684.21 1294.6H1681.36V1318.01H1684.21V1294.6Z" fill="#FFA412"/>
<path d="M1666.48 1294.6H1663.63V1318.01H1666.48V1294.6Z" fill="#FFA412"/>
<path d="M1647.73 1294.6H1644.88V1318.01H1647.73V1294.6Z" fill="#FFA412"/>
<path d="M1618.99 1294.6H1616.14V1318.01H1618.99V1294.6Z" fill="#FFA412"/>
<path d="M1592.07 1294.6H1589.23V1318.01H1592.07V1294.6Z" fill="#FFA412"/>
<path d="M1568.04 1294.6H1565.19V1318.01H1568.04V1294.6Z" fill="#FFA412"/>
<path d="M1714.6 1294.6H1711.75V1318.01H1714.6V1294.6Z" fill="#FFA412"/>
<path d="M1720.67 1294.6H1717.82V1318.01H1720.67V1294.6Z" fill="#FFA412"/>
<path d="M1726.53 1294.6H1723.68V1318.01H1726.53V1294.6Z" fill="#FFA412"/>
<path d="M1730.93 1294.68V1317.93C1730.58 1317.98 1730.23 1318.01 1729.86 1318.01H1728.08V1294.6H1729.86C1730.23 1294.6 1730.58 1294.63 1730.93 1294.68Z" fill="#FFA412"/>
<path d="M1734.89 1296.85V1315.76C1734.2 1316.61 1733.21 1317.29 1732.04 1317.66V1294.94C1733.21 1295.32 1734.2 1296 1734.89 1296.85Z" fill="#FFA412"/>
<path d="M1748.88 1276.87V1290.08C1748.88 1291.14 1748.5 1292.12 1747.84 1292.93C1747.15 1293.79 1746.16 1294.46 1745 1294.84C1744.64 1294.95 1744.27 1295.04 1743.88 1295.1C1743.54 1295.15 1743.18 1295.18 1742.82 1295.18H1492.09C1491.09 1295.18 1490.14 1294.97 1489.3 1294.6C1487.64 1293.87 1486.42 1292.51 1486.1 1290.91C1486.08 1290.8 1486.07 1290.69 1486.06 1290.58C1486.05 1290.5 1486.04 1290.43 1486.04 1290.35C1486.03 1290.26 1486.03 1290.18 1486.03 1290.08V1276.87C1486.03 1276.78 1486.03 1276.69 1486.04 1276.6C1486.05 1276.44 1486.06 1276.27 1486.1 1276.11C1486.54 1273.67 1489.07 1271.77 1492.09 1271.77H1742.82C1743.18 1271.77 1743.54 1271.8 1743.88 1271.86C1744.27 1271.91 1744.65 1272 1745 1272.11C1746.16 1272.49 1747.15 1273.16 1747.84 1274.03C1748.5 1274.84 1748.88 1275.81 1748.88 1276.87Z" fill="#FFB93E"/>
<path d="M1625.77 1295.18H1491.44C1490.54 1295.18 1489.7 1294.97 1488.95 1294.6C1487.47 1293.87 1486.38 1292.51 1486.1 1290.9C1486.08 1290.8 1486.07 1290.69 1486.05 1290.58C1486.05 1290.5 1486.04 1290.43 1486.04 1290.35C1486.03 1290.26 1486.03 1290.18 1486.03 1290.08V1276.87C1486.03 1276.78 1486.03 1276.69 1486.04 1276.6C1486.05 1276.44 1486.06 1276.27 1486.09 1276.11C1486.13 1275.92 1486.18 1275.74 1486.23 1275.56C1486.85 1273.39 1488.95 1271.77 1491.44 1271.77H1609.27C1611.1 1278.47 1615.3 1287.68 1624.94 1294.6C1625.21 1294.8 1625.48 1294.99 1625.77 1295.18Z" fill="#FFA412"/>
<path d="M1718.38 1271.77H1715.53V1295.18H1718.38V1271.77Z" fill="#FFA412"/>
<path d="M1708.73 1271.77H1705.88V1295.18H1708.73V1271.77Z" fill="#FFA412"/>
<path d="M1697.16 1271.77H1694.31V1295.18H1697.16V1271.77Z" fill="#FFA412"/>
<path d="M1679.43 1271.77H1676.58V1295.18H1679.43V1271.77Z" fill="#FFA412"/>
<path d="M1660.68 1271.77H1657.83V1295.18H1660.68V1271.77Z" fill="#FFA412"/>
<path d="M1631.94 1271.77H1629.09V1295.18H1631.94V1271.77Z" fill="#FFA412"/>
<path d="M1605.03 1271.77H1602.18V1295.18H1605.03V1271.77Z" fill="#FFA412"/>
<path d="M1581 1271.77H1578.15V1295.18H1581V1271.77Z" fill="#FFA412"/>
<path d="M1727.56 1271.77H1724.71V1295.18H1727.56V1271.77Z" fill="#FFA412"/>
<path d="M1733.62 1271.77H1730.77V1295.18H1733.62V1271.77Z" fill="#FFA412"/>
<path d="M1739.48 1271.77H1736.63V1295.18H1739.48V1271.77Z" fill="#FFA412"/>
<path d="M1743.89 1271.86V1295.1C1743.54 1295.15 1743.18 1295.18 1742.82 1295.18H1741.04V1271.77H1742.82C1743.18 1271.77 1743.54 1271.8 1743.89 1271.86Z" fill="#FFA412"/>
<path d="M1747.84 1274.02V1292.93C1747.15 1293.79 1746.16 1294.46 1745 1294.84V1272.12C1746.16 1272.49 1747.15 1273.17 1747.84 1274.02Z" fill="#FFA412"/>
<path d="M1769.37 1253.46V1266.68C1769.37 1267.73 1768.99 1268.7 1768.34 1269.52L1768.33 1269.52C1768.24 1269.63 1768.15 1269.73 1768.06 1269.84C1767.67 1270.24 1767.23 1270.6 1766.72 1270.89C1766.47 1271.03 1766.2 1271.16 1765.92 1271.27C1765.91 1271.27 1765.91 1271.28 1765.91 1271.28C1765.78 1271.33 1765.64 1271.39 1765.49 1271.43C1765.13 1271.55 1764.76 1271.64 1764.37 1271.69C1764.03 1271.75 1763.67 1271.77 1763.31 1271.77H1512.58C1509.56 1271.77 1507.03 1269.88 1506.58 1267.44C1506.55 1267.27 1506.54 1267.11 1506.53 1266.94C1506.52 1266.85 1506.52 1266.77 1506.52 1266.68V1253.46C1506.52 1253.37 1506.52 1253.29 1506.53 1253.2C1506.68 1250.72 1508.96 1248.7 1511.87 1248.41C1512.11 1248.38 1512.34 1248.37 1512.58 1248.37H1763.31C1763.67 1248.37 1764.03 1248.4 1764.37 1248.45C1764.76 1248.51 1765.13 1248.59 1765.49 1248.71C1766.5 1249.04 1767.38 1249.6 1768.05 1250.3C1768.15 1250.41 1768.24 1250.51 1768.33 1250.62L1768.34 1250.62C1768.99 1251.44 1769.37 1252.41 1769.37 1253.46Z" fill="#FFB93E"/>
<path d="M1646.26 1271.77H1511.93C1509.44 1271.77 1507.34 1270.15 1506.72 1267.98C1506.67 1267.8 1506.62 1267.62 1506.58 1267.44C1506.55 1267.27 1506.54 1267.11 1506.53 1266.94C1506.52 1266.85 1506.52 1266.77 1506.52 1266.68V1253.46C1506.52 1253.37 1506.52 1253.29 1506.53 1253.2C1506.66 1250.72 1508.71 1248.7 1511.29 1248.41C1511.5 1248.37 1511.71 1248.37 1511.93 1248.37H1629.76C1629.76 1248.37 1629.77 1248.39 1629.77 1248.41C1631.66 1255.29 1636.04 1264.8 1646.26 1271.77Z" fill="#FFA412"/>
<path d="M1738.86 1248.37H1736.01V1271.77H1738.86V1248.37Z" fill="#FFA412"/>
<path d="M1729.22 1248.37H1726.37V1271.77H1729.22V1248.37Z" fill="#FFA412"/>
<path d="M1717.65 1248.37H1714.8V1271.77H1717.65V1248.37Z" fill="#FFA412"/>
<path d="M1699.92 1248.37H1697.07V1271.77H1699.92V1248.37Z" fill="#FFA412"/>
<path d="M1681.17 1248.37H1678.32V1271.77H1681.17V1248.37Z" fill="#FFA412"/>
<path d="M1652.43 1248.37H1649.58V1271.77H1652.43V1248.37Z" fill="#FFA412"/>
<path d="M1625.52 1248.37H1622.67V1271.77H1625.52V1248.37Z" fill="#FFA412"/>
<path d="M1601.49 1248.37H1598.64V1271.77H1601.49V1248.37Z" fill="#FFA412"/>
<path d="M1748.05 1248.37H1745.2V1271.77H1748.05V1248.37Z" fill="#FFA412"/>
<path d="M1754.11 1248.37H1751.26V1271.77H1754.11V1248.37Z" fill="#FFA412"/>
<path d="M1759.97 1248.37H1757.12V1271.77H1759.97V1248.37Z" fill="#FFA412"/>
<path d="M1764.38 1248.45V1271.69C1764.03 1271.74 1763.67 1271.77 1763.31 1271.77H1761.53V1248.37H1763.31C1763.67 1248.37 1764.03 1248.39 1764.38 1248.45Z" fill="#FFA412"/>
<path d="M1768.33 1250.62V1269.52C1767.64 1270.38 1766.65 1271.05 1765.49 1271.43V1248.71C1766.65 1249.09 1767.64 1249.76 1768.33 1250.62Z" fill="#FFA412"/>
<path d="M1736.45 1230.09V1243.31C1736.45 1244.37 1736.08 1245.34 1735.42 1246.15C1734.73 1247.01 1733.73 1247.69 1732.57 1248.06C1732.21 1248.18 1731.84 1248.27 1731.46 1248.32C1731.35 1248.34 1731.23 1248.35 1731.11 1248.37H1731.06C1730.99 1248.38 1730.91 1248.38 1730.83 1248.39C1730.78 1248.39 1730.73 1248.4 1730.69 1248.4C1730.59 1248.4 1730.49 1248.41 1730.39 1248.41H1479.67C1477.49 1248.41 1475.57 1247.44 1474.51 1245.98C1473.99 1245.27 1473.66 1244.45 1473.61 1243.57C1473.6 1243.48 1473.6 1243.39 1473.6 1243.31V1230.09C1473.6 1230 1473.6 1229.91 1473.61 1229.83C1473.74 1227.66 1475.52 1225.83 1477.91 1225.22C1478.47 1225.07 1479.06 1225 1479.67 1225H1730.39C1730.5 1225 1730.6 1225 1730.71 1225C1730.77 1225 1730.82 1225.01 1730.87 1225.02C1731.07 1225.03 1731.27 1225.05 1731.46 1225.08C1731.84 1225.14 1732.21 1225.22 1732.57 1225.34C1732.75 1225.4 1732.92 1225.46 1733.08 1225.54H1733.09C1733.76 1225.81 1734.35 1226.19 1734.85 1226.64C1734.86 1226.65 1734.86 1226.66 1734.87 1226.67C1734.89 1226.7 1734.92 1226.71 1734.94 1226.73C1735.11 1226.89 1735.27 1227.06 1735.42 1227.24C1736.08 1228.06 1736.45 1229.04 1736.45 1230.09Z" fill="#FFB93E"/>
<path d="M1613.34 1248.41H1479.02C1477.14 1248.41 1475.46 1247.48 1474.5 1246.1C1473.98 1245.36 1473.66 1244.5 1473.61 1243.57C1473.6 1243.48 1473.6 1243.39 1473.6 1243.31V1230.09C1473.6 1230 1473.6 1229.91 1473.61 1229.83C1473.74 1227.49 1475.55 1225.57 1477.93 1225.1C1478.28 1225.03 1478.65 1225 1479.02 1225H1596.84C1596.89 1225.18 1596.95 1225.36 1597 1225.54C1598.95 1232.37 1603.36 1241.56 1613.28 1248.37C1613.3 1248.38 1613.32 1248.39 1613.34 1248.41Z" fill="#FFA412"/>
<path d="M1705.95 1225H1703.1V1248.4H1705.95V1225Z" fill="#FFA412"/>
<path d="M1696.3 1225H1693.45V1248.4H1696.3V1225Z" fill="#FFA412"/>
<path d="M1684.74 1225H1681.89V1248.4H1684.74V1225Z" fill="#FFA412"/>
<path d="M1667.01 1225H1664.16V1248.4H1667.01V1225Z" fill="#FFA412"/>
<path d="M1648.26 1225H1645.41V1248.4H1648.26V1225Z" fill="#FFA412"/>
<path d="M1619.51 1225H1616.66V1248.4H1619.51V1225Z" fill="#FFA412"/>
<path d="M1592.6 1225H1589.75V1248.4H1592.6V1225Z" fill="#FFA412"/>
<path d="M1568.57 1225H1565.72V1248.4H1568.57V1225Z" fill="#FFA412"/>
<path d="M1715.13 1225H1712.28V1248.4H1715.13V1225Z" fill="#FFA412"/>
<path d="M1721.2 1225H1718.35V1248.4H1721.2V1225Z" fill="#FFA412"/>
<path d="M1727.05 1225H1724.2V1248.4H1727.05V1225Z" fill="#FFA412"/>
<path d="M1731.46 1225.08V1248.32C1731.11 1248.38 1730.76 1248.4 1730.39 1248.4H1728.61V1225H1730.39C1730.76 1225 1731.11 1225.02 1731.46 1225.08Z" fill="#FFA412"/>
<path d="M1735.42 1227.25V1246.15C1734.73 1247.01 1733.73 1247.68 1732.57 1248.06V1225.34C1733.73 1225.72 1734.73 1226.39 1735.42 1227.25Z" fill="#FFA412"/>
<path d="M1754.89 1207.23V1220.44C1754.89 1221.5 1754.51 1222.47 1753.85 1223.29C1753.16 1224.14 1752.17 1224.82 1751 1225.19C1750.65 1225.31 1750.27 1225.4 1749.89 1225.46C1749.54 1225.51 1749.19 1225.54 1748.82 1225.54H1498.1C1497.13 1225.54 1496.21 1225.34 1495.39 1225C1493.57 1224.23 1492.26 1222.7 1492.06 1220.91C1492.05 1220.85 1492.05 1220.78 1492.04 1220.71C1492.04 1220.62 1492.04 1220.53 1492.04 1220.44V1207.23C1492.04 1207.14 1492.04 1207.05 1492.04 1206.96C1492.19 1204.48 1494.48 1202.46 1497.39 1202.17C1497.62 1202.14 1497.86 1202.13 1498.1 1202.13H1748.82C1749.19 1202.13 1749.55 1202.16 1749.89 1202.21C1750.28 1202.27 1750.65 1202.36 1751 1202.47C1752.17 1202.85 1753.16 1203.53 1753.85 1204.38C1754.51 1205.2 1754.89 1206.17 1754.89 1207.23Z" fill="#FFB93E"/>
<path d="M1631.77 1225.54H1497.45C1496.58 1225.54 1495.76 1225.34 1495.03 1225C1493.4 1224.23 1492.24 1222.7 1492.06 1220.91C1492.05 1220.85 1492.05 1220.78 1492.04 1220.71C1492.04 1220.62 1492.04 1220.53 1492.04 1220.44V1207.23C1492.04 1207.14 1492.04 1207.05 1492.04 1206.96C1492.18 1204.48 1494.22 1202.46 1496.81 1202.17C1497.02 1202.14 1497.23 1202.13 1497.45 1202.13H1615.28C1615.28 1202.14 1615.28 1202.16 1615.29 1202.17C1617.12 1208.88 1621.34 1218.08 1631 1225C1631.25 1225.18 1631.51 1225.36 1631.77 1225.54Z" fill="#FFA412"/>
<path d="M1724.38 1202.13H1721.53V1225.54H1724.38V1202.13Z" fill="#FFA412"/>
<path d="M1714.74 1202.13H1711.89V1225.54H1714.74V1202.13Z" fill="#FFA412"/>
<path d="M1703.17 1202.13H1700.32V1225.54H1703.17V1202.13Z" fill="#FFA412"/>
<path d="M1685.44 1202.13H1682.59V1225.54H1685.44V1202.13Z" fill="#FFA412"/>
<path d="M1666.69 1202.13H1663.84V1225.54H1666.69V1202.13Z" fill="#FFA412"/>
<path d="M1637.95 1202.13H1635.1V1225.54H1637.95V1202.13Z" fill="#FFA412"/>
<path d="M1611.04 1202.13H1608.18V1225.54H1611.04V1202.13Z" fill="#FFA412"/>
<path d="M1587.01 1202.13H1584.15V1225.54H1587.01V1202.13Z" fill="#FFA412"/>
<path d="M1733.56 1202.13H1730.71V1225.54H1733.56V1202.13Z" fill="#FFA412"/>
<path d="M1739.63 1202.13H1736.78V1225.54H1739.63V1202.13Z" fill="#FFA412"/>
<path d="M1745.49 1202.13H1742.64V1225.54H1745.49V1202.13Z" fill="#FFA412"/>
<path d="M1749.89 1202.21V1225.46C1749.54 1225.51 1749.19 1225.54 1748.82 1225.54H1747.04V1202.13H1748.82C1749.19 1202.13 1749.54 1202.16 1749.89 1202.21Z" fill="#FFA412"/>
<path d="M1753.85 1204.38V1223.29C1753.16 1224.14 1752.17 1224.82 1751 1225.19V1202.47C1752.17 1202.85 1753.16 1203.52 1753.85 1204.38Z" fill="#FFA412"/>
<path d="M1762.74 1183.86V1197.07C1762.74 1198.13 1762.35 1199.1 1761.7 1199.92C1761.01 1200.77 1760.01 1201.45 1758.85 1201.82C1758.49 1201.94 1758.12 1202.03 1757.74 1202.09C1757.62 1202.1 1757.51 1202.12 1757.39 1202.13C1757.32 1202.14 1757.26 1202.14 1757.19 1202.15C1757.13 1202.16 1757.06 1202.16 1756.99 1202.16C1756.88 1202.17 1756.78 1202.17 1756.67 1202.17H1505.95C1502.72 1202.17 1500.05 1200.02 1499.89 1197.34C1499.89 1197.25 1499.88 1197.16 1499.88 1197.07V1183.86C1499.88 1183.77 1499.89 1183.68 1499.89 1183.59C1500.05 1180.91 1502.72 1178.76 1505.95 1178.76H1756.67C1757.03 1178.76 1757.39 1178.79 1757.74 1178.84C1758.12 1178.9 1758.49 1178.99 1758.85 1179.11C1760.01 1179.48 1761 1180.16 1761.7 1181.01C1762.35 1181.83 1762.74 1182.8 1762.74 1183.86Z" fill="#FFB93E"/>
<path d="M1639.62 1202.17H1505.3C1502.42 1202.17 1500.04 1200.02 1499.89 1197.34C1499.89 1197.25 1499.88 1197.16 1499.88 1197.07V1183.86C1499.88 1183.77 1499.89 1183.68 1499.89 1183.59C1500.04 1180.91 1502.42 1178.76 1505.3 1178.76H1623.12C1625 1185.64 1629.37 1195.15 1639.56 1202.13C1639.58 1202.14 1639.6 1202.16 1639.62 1202.17Z" fill="#FFA412"/>
<path d="M1732.23 1178.76H1729.38V1202.17H1732.23V1178.76Z" fill="#FFA412"/>
<path d="M1722.58 1178.76H1719.73V1202.17H1722.58V1178.76Z" fill="#FFA412"/>
<path d="M1711.02 1178.76H1708.17V1202.17H1711.02V1178.76Z" fill="#FFA412"/>
<path d="M1693.28 1178.76H1690.44V1202.17H1693.28V1178.76Z" fill="#FFA412"/>
<path d="M1674.54 1178.76H1671.69V1202.17H1674.54V1178.76Z" fill="#FFA412"/>
<path d="M1645.79 1178.76H1642.94V1202.17H1645.79V1178.76Z" fill="#FFA412"/>
<path d="M1618.88 1178.76H1616.03V1202.17H1618.88V1178.76Z" fill="#FFA412"/>
<path d="M1594.85 1178.76H1592V1202.17H1594.85V1178.76Z" fill="#FFA412"/>
<path d="M1741.41 1178.76H1738.56V1202.17H1741.41V1178.76Z" fill="#FFA412"/>
<path d="M1747.48 1178.76H1744.63V1202.17H1747.48V1178.76Z" fill="#FFA412"/>
<path d="M1753.33 1178.76H1750.48V1202.17H1753.33V1178.76Z" fill="#FFA412"/>
<path d="M1757.74 1178.84V1202.09C1757.39 1202.14 1757.04 1202.17 1756.67 1202.17H1754.89V1178.76H1756.67C1757.04 1178.76 1757.39 1178.79 1757.74 1178.84Z" fill="#FFA412"/>
<path d="M1761.7 1181.01V1199.92C1761.01 1200.77 1760.01 1201.45 1758.85 1201.82V1179.1C1760.01 1179.48 1761.01 1180.16 1761.7 1181.01Z" fill="#FFA412"/>
<path d="M1683.26 1045.38C1683.26 1045.38 1670.09 1063.92 1658.02 1064.17C1645.95 1064.43 1627.58 1055.58 1627.58 1055.58C1627.58 1055.58 1616.5 1030.88 1624.02 1021.21C1624.02 1021.21 1631.56 1017.9 1639.44 1023.74C1640.79 1024.75 1642.17 1026.02 1643.52 1027.65C1645.43 1029.95 1647.58 1031.26 1649.86 1031.95C1658.47 1034.57 1668.7 1028.41 1672.52 1034.36C1674.76 1037.81 1677.18 1040.41 1679.18 1042.24C1681.54 1044.35 1683.26 1045.38 1683.26 1045.38Z" fill="#FFEDDC"/>
<path d="M1511.58 1179.1C1511.58 1179.1 1558.13 1066.32 1641.91 1064.17C1641.91 1064.17 1719.25 1072.77 1723.54 1179.1H1511.58Z" fill="#FFEDDC"/>
<path d="M1618.96 1067.62C1618.96 1067.62 1652.54 1075.09 1662.9 1070.7C1662.9 1070.7 1664.46 1056.66 1650.32 1058.62C1640.64 1059.97 1634.34 1055.32 1630.63 1053.43C1625.38 1050.76 1617.56 1061.74 1618.96 1067.62Z" fill="#DB6A1D"/>
<path d="M1648.18 1046.45C1646.03 1048.06 1639.44 1023.74 1639.44 1023.74C1640.79 1024.75 1642.17 1026.02 1643.52 1027.65C1645.43 1029.95 1647.58 1031.26 1649.86 1031.95C1649.88 1032.66 1650.27 1044.88 1648.18 1046.45Z" fill="#E5C1A1"/>
<path d="M1679.18 1042.24C1678.71 1042.52 1663.18 1051.82 1661.07 1051.82C1658.92 1051.82 1672.52 1034.36 1672.52 1034.36C1674.76 1037.81 1677.18 1040.41 1679.18 1042.24Z" fill="#E5C1A1"/>
<path d="M1557.05 1147.6C1556.19 1146.86 1589.99 1097.83 1599.3 1097.47C1608.61 1097.11 1629.53 1108.21 1644.67 1109.64C1659.81 1111.08 1674.49 1106.78 1677.36 1115.73C1680.22 1124.68 1688.1 1156.42 1683.26 1161.5C1678.43 1166.57 1575.64 1163.48 1557.05 1147.6Z" fill="#F9DDBF"/>
<path opacity="0.5" d="M1588.89 1317.84C1588.88 1317.9 1588.88 1317.96 1588.87 1318.01C1588.43 1325.87 1587.17 1333.64 1585.11 1341.21C1585.11 1341.22 1585.1 1341.23 1585.1 1341.25C1584.8 1342.35 1584.49 1343.44 1584.15 1344.53C1582.05 1351.44 1579.29 1358.17 1575.89 1364.62C1571.62 1372.73 1566.36 1380.4 1560.14 1387.44C1559.98 1387.64 1559.8 1387.84 1559.63 1388.02C1551.86 1396.73 1542.64 1404.46 1532.09 1410.86C1529.86 1412.21 1527.58 1413.5 1525.24 1414.73C1523.66 1415.56 1522.07 1416.35 1520.47 1417.11C1518.94 1417.99 1517.33 1418.75 1515.81 1419.68C1511.39 1422.38 1505.88 1424.53 1499.88 1426.24V1415.95C1499.88 1415.86 1499.89 1415.77 1499.89 1415.69C1499.89 1415.52 1499.92 1415.35 1499.94 1415.19C1499.98 1415 1500.03 1414.81 1500.09 1414.62C1500.71 1412.46 1502.81 1410.85 1505.3 1410.85H1478.49C1476 1410.85 1473.91 1409.24 1473.28 1407.07C1473.22 1406.89 1473.17 1406.71 1473.14 1406.51C1473.12 1406.35 1473.09 1406.19 1473.08 1406.02C1473.08 1405.93 1473.08 1405.85 1473.08 1405.75V1392.54C1473.08 1392.46 1473.08 1392.36 1473.08 1392.28C1473.09 1392.11 1473.11 1391.95 1473.14 1391.78C1473.17 1391.59 1473.23 1391.41 1473.28 1391.22C1473.91 1389.06 1476 1387.44 1478.49 1387.44H1488.95C1487.46 1386.71 1486.38 1385.35 1486.1 1383.75C1486.08 1383.64 1486.07 1383.53 1486.05 1383.42C1486.05 1383.35 1486.04 1383.27 1486.04 1383.19C1486.03 1383.1 1486.03 1383.02 1486.03 1382.93V1369.71C1486.03 1369.62 1486.03 1369.54 1486.04 1369.45C1486.05 1369.29 1486.06 1369.11 1486.09 1368.96C1486.13 1368.77 1486.18 1368.59 1486.23 1368.41C1486.85 1366.23 1488.95 1364.62 1491.44 1364.62H1497.45C1494.96 1364.62 1492.86 1363 1492.24 1360.84C1492.18 1360.66 1492.13 1360.47 1492.09 1360.28C1492.07 1360.11 1492.05 1359.95 1492.04 1359.79V1346.04C1492.18 1343.57 1494.22 1341.54 1496.81 1341.25H1479.02C1476.13 1341.25 1473.76 1339.09 1473.61 1336.42C1473.6 1336.33 1473.6 1336.24 1473.6 1336.15V1322.94C1473.6 1322.85 1473.6 1322.75 1473.61 1322.67C1473.61 1322.6 1473.62 1322.53 1473.62 1322.46C1473.84 1320.25 1475.57 1318.45 1477.83 1317.97C1475.4 1317.68 1473.46 1315.88 1473.13 1313.62C1473.11 1313.47 1473.09 1313.33 1473.08 1313.18C1473.08 1313.08 1473.08 1313 1473.08 1312.91V1299.7C1473.08 1299.6 1473.08 1299.52 1473.08 1299.43C1473.09 1299.27 1473.12 1299.1 1473.14 1298.94C1473.17 1298.75 1473.23 1298.56 1473.29 1298.38C1473.91 1296.21 1476 1294.6 1478.49 1294.6H1488.95C1487.46 1293.87 1486.38 1292.51 1486.1 1290.9C1486.08 1290.79 1486.07 1290.68 1486.05 1290.57C1486.05 1290.49 1486.04 1290.42 1486.04 1290.35C1486.03 1290.26 1486.03 1290.17 1486.03 1290.08V1276.87C1486.03 1276.78 1486.03 1276.68 1486.04 1276.6C1486.05 1276.43 1486.06 1276.27 1486.09 1276.11C1486.13 1275.92 1486.18 1275.74 1486.23 1275.56C1486.85 1273.39 1488.95 1271.77 1491.44 1271.77H1511.93C1509.44 1271.77 1507.34 1270.15 1506.72 1267.98C1506.67 1267.8 1506.62 1267.62 1506.58 1267.44C1506.55 1267.27 1506.54 1267.11 1506.53 1266.93C1506.52 1266.85 1506.52 1266.76 1506.52 1266.67V1253.45C1506.52 1253.37 1506.52 1253.28 1506.53 1253.2C1506.66 1250.72 1508.7 1248.69 1511.29 1248.4H1479.02C1477.13 1248.4 1475.46 1247.48 1474.49 1246.09L1474.51 1245.97L1477.91 1225.22L1477.92 1225.1L1482.76 1195.49C1488.38 1196.24 1493.93 1197.36 1499.38 1198.83C1499.7 1198.92 1500.01 1199 1500.33 1199.09C1500.35 1199.1 1500.37 1199.11 1500.39 1199.11C1503.57 1200 1506.7 1201 1509.79 1202.13C1509.82 1202.14 1509.84 1202.15 1509.87 1202.16C1524.08 1207.34 1537.32 1215.02 1548.8 1224.99C1549 1225.16 1549.21 1225.34 1549.4 1225.53C1555.37 1230.77 1560.85 1236.64 1565.72 1243.11C1566.7 1244.4 1567.65 1245.71 1568.57 1247.04C1568.87 1247.48 1569.18 1247.92 1569.47 1248.36C1569.48 1248.37 1569.49 1248.39 1569.49 1248.4C1570.97 1250.59 1572.37 1252.83 1573.71 1255.13C1576.85 1260.56 1579.49 1266.12 1581.64 1271.77C1584.51 1279.26 1586.53 1286.91 1587.72 1294.6C1587.76 1294.79 1587.78 1294.98 1587.81 1295.18C1588.95 1302.74 1589.29 1310.33 1588.89 1317.84Z" fill="#E2810E"/>
<path d="M1329.9 1365.3C1297.02 1305.65 1318.72 1230.64 1378.37 1197.76C1438.01 1164.88 1513.02 1186.58 1545.9 1246.23C1578.78 1305.87 1557.08 1380.88 1497.44 1413.76C1437.79 1446.64 1362.78 1424.94 1329.9 1365.3Z" fill="#E2810E"/>
<path d="M1492.65 1416.27C1491.13 1417.19 1489.58 1418.09 1488.01 1418.95C1487.48 1419.25 1486.95 1419.54 1486.42 1419.82C1485.2 1420.46 1483.99 1421.09 1482.76 1421.69C1424.03 1450.54 1352.4 1428.4 1320.48 1370.49C1290.02 1315.25 1306.39 1246.83 1356.36 1210.9C1360.34 1208.04 1364.54 1205.38 1368.94 1202.95C1370.52 1202.08 1372.12 1201.24 1373.72 1200.45C1375.27 1199.68 1376.84 1198.94 1378.42 1198.24C1383.25 1196.09 1388.15 1194.27 1393.11 1192.79C1400.47 1190.57 1407.95 1189.08 1415.44 1188.29C1438.67 1185.83 1462.04 1190.07 1482.76 1200.21C1504.75 1210.96 1523.76 1228.35 1536.48 1251.42C1568.49 1309.5 1548.77 1382.13 1492.65 1416.27Z" fill="#FFB93E"/>
<path d="M1429.34 1422.78C1419.03 1422.78 1408.66 1421.32 1398.48 1418.38C1370.12 1410.18 1346.66 1391.42 1332.41 1365.57C1318.17 1339.73 1314.84 1309.88 1323.04 1281.52C1331.24 1253.17 1349.99 1229.71 1375.84 1215.46C1429.2 1186.04 1496.54 1205.53 1525.96 1258.89C1555.37 1312.24 1535.89 1379.59 1482.53 1409C1465.96 1418.13 1447.75 1422.78 1429.34 1422.78ZM1429 1204.73C1411.46 1204.73 1393.69 1209.02 1377.28 1218.07C1352.13 1231.93 1333.88 1254.76 1325.9 1282.35C1317.92 1309.94 1321.16 1338.98 1335.02 1364.13C1348.89 1389.29 1371.72 1407.53 1399.3 1415.51C1426.89 1423.49 1455.94 1420.25 1481.09 1406.39C1533.01 1377.77 1551.96 1312.24 1523.34 1260.32C1503.77 1224.82 1466.94 1204.73 1429 1204.73Z" fill="#FFA412"/>
<path d="M1483.53 1322.96C1483.28 1322.36 1483.03 1321.77 1482.76 1321.19C1480.76 1316.8 1478.27 1313.23 1475.28 1310.51C1471.9 1307.43 1467.98 1305.12 1463.51 1303.58C1459.04 1302.04 1454.05 1301.1 1448.55 1300.77C1443.04 1300.43 1437.05 1300.35 1430.58 1300.53C1426.58 1300.65 1423.16 1300.58 1420.32 1300.33C1417.48 1300.07 1415.07 1299.54 1413.1 1298.75C1411.12 1297.95 1409.51 1296.86 1408.27 1295.48C1407.04 1294.1 1406.02 1292.42 1405.21 1290.42C1404.4 1288.43 1403.94 1286.46 1403.82 1284.5C1403.7 1282.54 1403.99 1280.69 1404.69 1278.92C1405.4 1277.17 1406.54 1275.54 1408.13 1274.05C1409.72 1272.56 1411.81 1271.28 1414.42 1270.22C1419.23 1268.27 1423.73 1268.31 1427.89 1270.35C1432.06 1272.39 1435.46 1276.64 1438.08 1283.1L1463.2 1272.9C1461.02 1267.52 1458.28 1262.97 1454.98 1259.26C1451.69 1255.55 1447.97 1252.68 1443.84 1250.66C1439.71 1248.64 1435.22 1247.45 1430.35 1247.11C1425.49 1246.76 1420.43 1247.28 1415.19 1248.66L1408.07 1231.13L1394.17 1236.78L1401.18 1254.06C1396.16 1256.66 1391.91 1259.69 1388.41 1263.15C1384.92 1266.61 1382.24 1270.34 1380.36 1274.36C1378.49 1278.39 1377.5 1282.61 1377.41 1287.04C1377.32 1291.47 1378.2 1295.97 1380.05 1300.54C1382.2 1305.82 1384.96 1310 1388.34 1313.08C1391.71 1316.16 1395.63 1318.46 1400.1 1319.97C1404.56 1321.48 1409.54 1322.39 1415.07 1322.68C1420.59 1322.98 1426.59 1322.97 1433.08 1322.66C1436.84 1322.45 1440.11 1322.47 1442.88 1322.72C1445.65 1322.98 1448.04 1323.51 1450.06 1324.32C1452.08 1325.13 1453.75 1326.27 1455.09 1327.73C1456.43 1329.2 1457.56 1331.06 1458.47 1333.32C1459.28 1335.32 1459.68 1337.3 1459.67 1339.28C1459.67 1341.26 1459.22 1343.14 1458.33 1344.95C1457.45 1346.75 1456.11 1348.42 1454.34 1349.96C1452.57 1351.49 1450.32 1352.81 1447.6 1353.92C1445.22 1354.88 1442.76 1355.52 1440.22 1355.83C1437.68 1356.14 1435.2 1355.89 1432.78 1355.09C1430.36 1354.28 1428.1 1352.82 1425.99 1350.7C1423.88 1348.58 1422.05 1345.61 1420.5 1341.78L1395.38 1351.98C1398 1358.44 1401.29 1363.56 1405.26 1367.34C1409.22 1371.12 1413.56 1373.83 1418.27 1375.46C1422.99 1377.09 1427.92 1377.81 1433.06 1377.59C1438.21 1377.39 1443.29 1376.55 1448.3 1375.07L1454.78 1391.06L1468.6 1385.45L1462.08 1369.39C1467.1 1366.79 1471.4 1363.78 1474.98 1360.38C1478.3 1357.24 1480.89 1353.86 1482.76 1350.22C1482.91 1349.93 1483.06 1349.63 1483.2 1349.33C1485.1 1345.37 1486.11 1341.16 1486.23 1336.72C1486.35 1332.29 1485.45 1327.7 1483.53 1322.96Z" fill="#FFA412"/>
<g opacity="0.7">
<path d="M2309.44 1298.06C2309.44 1298.06 2333.14 1270.41 2310.9 1252.85C2310.9 1252.85 2294.66 1243.01 2281.41 1243.81C2281.41 1243.81 2300.18 1275.28 2294.11 1278.41C2288.04 1281.54 2275.73 1241.84 2275.73 1241.84C2275.73 1241.84 2238.76 1238.25 2226.87 1243.97C2226.87 1243.97 2258.47 1269.83 2251.82 1271.37C2245.16 1272.91 2211.03 1247.53 2211.03 1247.53C2211.03 1247.53 2176.63 1253.38 2178.46 1274.37C2180.3 1295.36 2192.15 1301.84 2197.36 1301.28C2202.57 1300.72 2233.05 1289.09 2233.71 1293.36C2234.37 1297.63 2216.03 1311.58 2203.18 1312.23C2203.18 1312.23 2227.44 1338.98 2243.56 1331.26C2259.68 1323.54 2261.05 1311.3 2271.1 1306.71C2281.15 1302.12 2289.73 1302.13 2285.58 1306.81C2281.43 1311.5 2263.25 1316.04 2257.5 1326.21C2251.75 1336.37 2246.6 1343.23 2263.27 1340.72C2279.95 1338.21 2307.06 1326.01 2308.25 1312.03C2309.44 1298.06 2309.44 1298.06 2309.44 1298.06Z" fill="#77A4E5"/>
<path d="M2195.36 1274.94C2195.36 1274.94 2288.81 1271.33 2309.44 1298.06C2309.44 1298.06 2314 1311.73 2328.05 1324.17L2330.24 1330.14C2330.24 1330.14 2314.04 1313.07 2308.25 1312.03C2308.25 1312.03 2317.31 1278.93 2195.36 1274.94Z" fill="#77A4E5"/>
<path d="M2328.05 1324.17C2328.05 1324.17 2348.11 1339 2349.5 1365.51L2345.86 1365.83C2345.86 1365.83 2339.45 1338.43 2327.87 1327.71C2316.3 1317 2328.05 1324.17 2328.05 1324.17Z" fill="#77A4E5"/>
<path d="M2382.52 1275.44C2382.52 1275.44 2349.29 1256.83 2364.79 1231.57C2364.79 1231.57 2377.2 1216.06 2390.49 1212.07C2390.49 1212.07 2383.4 1249.74 2390.49 1250.62C2397.58 1251.51 2395.37 1208.09 2395.37 1208.09C2395.37 1208.09 2430.37 1191.25 2444.11 1192.58C2444.11 1192.58 2422.4 1229.35 2429.49 1228.47C2436.58 1227.58 2460.95 1190.36 2460.95 1190.36C2460.95 1190.36 2496.84 1183.72 2502.6 1204.98C2508.36 1226.25 2499.05 1236.89 2493.73 1238.22C2488.42 1239.55 2454.3 1239.1 2455.19 1243.53C2456.07 1247.97 2479.11 1255.05 2491.96 1251.07C2491.96 1251.07 2477.78 1286.07 2459.17 1284.3C2440.56 1282.53 2434.8 1271.01 2423.28 1270.12C2411.76 1269.23 2403.34 1272.33 2409.1 1275.44C2414.86 1278.54 2434.36 1276.45 2443.66 1284.36C2452.97 1292.27 2460.5 1297.15 2443.22 1300.69C2425.94 1304.24 2394.92 1302.02 2388.72 1288.73C2382.52 1275.44 2382.52 1275.44 2382.52 1275.44Z" fill="#77A4E5"/>
<path d="M2486.2 1211.63C2486.2 1211.63 2393.15 1241.76 2382.52 1275.44C2382.52 1275.44 2382.96 1290.5 2373.66 1307.78V1314.43C2373.66 1314.43 2383.4 1291.83 2388.72 1288.73C2388.72 1288.73 2367.9 1259.48 2486.2 1211.63Z" fill="#77A4E5"/>
<path d="M2373.66 1307.78C2373.66 1307.78 2359.31 1329.57 2367.49 1356.1L2371.18 1355.11C2371.18 1355.11 2367.59 1325.89 2375.1 1311.2C2382.61 1296.5 2373.66 1307.78 2373.66 1307.78Z" fill="#77A4E5"/>
<path d="M2332.32 1234.17C2332.32 1234.17 2382.02 1206.34 2358.83 1168.58C2358.83 1168.58 2340.28 1145.39 2320.4 1139.42C2320.4 1139.42 2331 1195.74 2320.4 1197.07C2309.8 1198.39 2313.11 1133.46 2313.11 1133.46C2313.11 1133.46 2260.76 1108.28 2240.23 1110.27C2240.23 1110.27 2272.69 1165.27 2262.09 1163.94C2251.49 1162.62 2215.05 1106.96 2215.05 1106.96C2215.05 1106.96 2161.38 1097.02 2152.76 1128.82C2144.15 1160.63 2158.06 1176.53 2166.01 1178.52C2173.97 1180.5 2224.99 1179.84 2223.66 1186.47C2222.33 1193.09 2187.88 1203.7 2168.66 1197.73C2168.66 1197.73 2189.87 1250.08 2217.7 1247.43C2245.52 1244.77 2254.14 1227.55 2271.37 1226.22C2288.59 1224.9 2301.18 1229.54 2292.57 1234.17C2283.96 1238.81 2254.8 1235.69 2240.89 1247.52C2226.97 1259.35 2215.71 1266.64 2241.55 1271.94C2267.39 1277.24 2313.77 1273.93 2323.05 1254.05C2332.32 1234.17 2332.32 1234.17 2332.32 1234.17Z" fill="#9FC1F4"/>
<path d="M2177.28 1138.76C2177.28 1138.76 2316.42 1183.82 2332.32 1234.17C2332.32 1234.17 2331.66 1256.7 2345.58 1282.54V1292.48C2345.58 1292.48 2331 1258.69 2323.05 1254.05C2323.05 1254.05 2354.19 1210.32 2177.28 1138.76Z" fill="#9FC1F4"/>
<path d="M2345.58 1282.54C2345.58 1282.54 2367.03 1315.13 2354.8 1354.79L2349.28 1353.31C2349.28 1353.31 2354.64 1309.62 2343.41 1287.65C2332.19 1265.67 2345.58 1282.54 2345.58 1282.54Z" fill="#9FC1F4"/>
<path d="M2331.12 1431.93C2283.73 1431.93 2245.31 1393.51 2245.31 1346.12H2416.93C2416.93 1393.51 2378.52 1431.93 2331.12 1431.93Z" fill="#9FC1F4"/>
<path d="M2243.36 1348.75H2419.76V1346.11H2243.36V1348.75Z" fill="#77A4E5"/>
<path d="M2367.77 1431.93H2287.43C2287.43 1428.13 2290.51 1425.04 2294.31 1425.04H2360.89C2364.69 1425.04 2367.77 1428.13 2367.77 1431.93Z" fill="#77A4E5"/>
</g>
<path d="M1808.1 855.796C1697.69 945.695 1565.41 1014.8 1414.93 1061.19C1292.71 1098.86 1157.29 1121.95 1012.42 1129.81C972.917 1131.95 934.441 1132.89 897.404 1132.89C822.512 1132.89 753.458 1129.08 693.273 1123.78L717.626 1008.58C800.607 1015.34 899.716 1018.89 1006.79 1013.08C1143.12 1005.69 1270.09 984.111 1384.14 948.963C1521.39 906.648 1641.42 844.13 1740.9 763.118L1808.1 855.796Z" fill="#F77D48"/>
<path d="M984.869 626.069C969.515 618.104 957.212 623.11 957.212 623.11C910.235 617.592 896.531 672.38 897.169 691.232C897.797 710.081 899.955 730.33 878.976 754.82C818.374 825.561 945.294 828.681 945.294 828.681C946.366 772.161 1014.12 792.784 1011.15 798.511C1098 819.355 1019.79 644.184 984.869 626.069Z" fill="#163560"/>
<path d="M803.653 861.699C803.653 861.699 795.391 849.122 788.733 848.876C782.074 848.629 769.744 845.177 770.73 847.643C771.717 850.109 779.363 850.356 780.101 851.835C780.841 853.314 768.759 855.534 765.306 855.78C761.854 856.027 753.716 855.78 753.962 857.507C754.209 859.234 768.629 866.385 778.803 865.399C788.979 864.413 801.556 868.358 801.556 868.358L803.653 861.699Z" fill="#FFB27D"/>
<path d="M923.134 865.768C923.134 865.768 918.643 874.66 910.497 884.876C900.68 897.172 885.543 911.377 866.537 914.181C857.46 915.52 848.581 913.567 840.421 909.942C840.4 909.934 840.392 909.934 840.392 909.934C817.31 899.688 799.954 876.125 799.954 876.125C795.887 865.027 802.545 857.504 802.545 857.504C802.545 857.504 849.153 867.986 853.592 865.768C858.031 863.548 883.925 788.954 890.087 779.58C896.257 770.207 917.268 765.339 917.268 765.339L923.134 865.768Z" fill="#F99746"/>
<path d="M910.497 884.877C900.68 897.173 885.542 911.378 866.536 914.182C857.459 915.521 848.581 913.568 840.421 909.943C841.323 910.061 864.377 912.909 873.566 896.47C882.939 879.699 893.074 853.066 906.998 861.943C913.004 865.775 912.739 875.296 910.497 884.877Z" fill="#ED7D2B"/>
<path d="M1097.02 1368.88C1097.02 1368.88 1111.24 1381.86 1108.46 1391.08C1105.69 1400.3 1092.86 1406.45 1091.12 1417.72C1089.39 1428.99 1082.45 1435.14 1076.21 1435.14C1069.96 1435.14 1046.44 1435.14 1046.44 1435.14C1046.44 1435.14 1041.84 1427.21 1052.94 1424.82C1064.04 1422.42 1068.23 1409.18 1067.53 1396.89C1066.84 1384.59 1068.57 1368.19 1068.57 1368.19L1092.16 1362.73L1097.02 1368.88Z" fill="#36599E"/>
<path d="M976.645 1374.39C976.645 1374.39 981.761 1429.37 975.518 1432.44L895.612 1432.28C895.612 1432.28 895.612 1423.06 908.446 1421.01C921.28 1418.96 943.827 1411.45 947.643 1394.71C951.459 1377.97 976.645 1374.39 976.645 1374.39Z" fill="#2B478B"/>
<path d="M1033.59 979.926C1017.14 943.05 1007.08 932.466 1009 921.021C1010.43 912.502 1004.65 762.192 1004.65 762.192C1002.7 761.588 998.789 761.046 996.651 760.57C989.905 759.073 984.323 754.336 982 747.83C979.201 739.992 976.978 728.418 977.029 713.916L974.922 714.33L939.506 721.343C939.506 721.343 940.313 732.489 940.336 742.989C940.336 743.076 940.337 743.163 940.337 743.25C940.381 752.369 934.398 760.418 925.636 762.947C921.162 764.238 917.271 765.341 917.271 765.341C917.271 765.341 904.265 802.47 901.782 840.613C899.298 878.756 925.431 895.325 901.586 971.547C877.24 1049.39 1042.67 1000.3 1033.59 979.926Z" fill="#FFB27D"/>
<path d="M939.505 721.342C939.505 721.342 940.311 732.488 940.334 742.988C960.153 742.428 970.629 724.349 974.921 714.329L939.505 721.342Z" fill="#E8945B"/>
<path d="M932.886 731.285C932.886 731.285 979.777 732.057 979.809 702.849C979.841 673.641 985.915 654.069 955.978 652.34C926.041 650.611 920.212 661.75 917.831 671.496C915.447 681.244 920.69 730.331 932.886 731.285Z" fill="#FFB27D"/>
<path d="M934.622 651.626C934.622 651.626 947.462 685.893 967.164 690.96C986.867 696.025 995.412 690.747 995.412 690.747C995.412 690.747 980.301 678.741 977.164 657.784C977.164 657.784 944.306 635.315 934.622 651.626Z" fill="#163560"/>
<path d="M937.805 654.407C937.805 654.407 928.284 657.967 924.367 664.91C920.535 671.7 917.271 680.692 918.028 691.724C918.028 691.724 908.355 668.432 919.226 655.257C930.752 641.287 937.805 654.407 937.805 654.407Z" fill="#163560"/>
<path d="M943.089 713.164C943.089 713.164 939.854 717.422 933.38 717.115C928.166 716.868 926.155 712.344 926.155 712.344C926.155 712.344 935.732 710.042 943.089 713.164Z" fill="#EBF3FA"/>
<path d="M1038.11 828.681C1038.11 828.681 1039.3 845.469 1038.11 865.615C1037.32 878.969 1023.81 896.854 1021.9 901.279C1017.09 912.376 1011.67 914.181 1011.67 914.181L969.71 924.463L954.959 928.074L908.439 914.18C908.439 914.18 887.251 855.039 895.758 821.747C904.267 788.456 917.265 765.337 917.265 765.337C917.265 765.337 955.224 802.505 1004.65 762.186L1038.11 828.681Z" fill="#F99746"/>
<path d="M911.398 923.158C911.398 923.158 888.361 994.865 886.88 1019.28C885.401 1043.69 930.918 1366.1 932.749 1377.35C934.476 1387.95 947.643 1394.71 947.643 1394.71C947.643 1394.71 953.699 1398.28 962.342 1395.84C974.333 1392.45 978.123 1388.4 978.123 1388.4C978.123 1388.4 996.055 1158.46 984.959 1076.33C973.861 994.188 973.731 923.158 973.731 923.158H911.398Z" fill="#233862"/>
<path d="M1009 921.02C1009 921.02 1044.15 968.17 1047.42 1000.04C1050.7 1031.92 1052.56 1143.87 1059.54 1174.95C1066.52 1206.02 1092.16 1265.81 1092.16 1362.73C1092.16 1362.73 1089.5 1368.28 1081.27 1371.24C1078.63 1372.19 1075.11 1373.11 1071.68 1373.89C1064.9 1375.45 1057.93 1372.13 1054.84 1365.89C1037.5 1330.99 982.273 1218.4 979.442 1195.04C977.438 1178.5 960.002 1069.04 921.966 1004.81C912.835 989.394 927.57 928.074 927.57 928.074L1009 921.02Z" fill="#2B478B"/>
<path d="M942.047 713.946C942.047 713.946 941.237 717.387 932.674 716.857C932.674 716.857 925.486 716.412 925.705 712.63C925.705 712.63 932.674 709.938 942.047 713.946Z" fill="white"/>
<path d="M907.718 912.089C907.718 912.089 916.967 919.404 935.339 919.775C957.284 920.216 1011.66 914.18 1011.66 914.18C1011.66 914.18 1014.08 920.93 1013.98 928.058C1013.98 928.058 947.566 944.811 909.085 930.505C909.085 930.505 904.123 921.166 907.718 912.089Z" fill="#233862"/>
<path d="M930.075 938.685C924.554 938.685 920.06 933.601 920.06 927.351C920.06 921.102 924.553 916.018 930.075 916.018C935.597 916.018 940.088 921.102 940.088 927.351C940.088 933.601 935.597 938.685 930.075 938.685ZM930.075 919.338C926.384 919.338 923.379 922.933 923.379 927.352C923.379 931.772 926.384 935.368 930.075 935.368C933.765 935.368 936.769 931.772 936.769 927.352C936.769 922.932 933.765 919.338 930.075 919.338Z" fill="white"/>
<path d="M1002.11 831.963L934.066 891.213L1015.17 984.358L1083.22 925.108L1002.11 831.963Z" fill="#B5453C"/>
<path d="M996.315 925.277C996.315 925.277 971.384 928.192 971.463 934.11C971.54 940.028 977.674 952.186 980.754 952.726C983.833 953.267 1001.04 936.285 1001.04 936.285L996.315 925.277Z" fill="#FFB27D"/>
<path d="M1004.65 762.187C1004.65 762.187 1037.94 764.52 1050.7 795.538C1063.46 826.554 1087.66 878.631 1087.66 887.392C1087.66 896.152 1074.14 923.159 1001.52 938.686C1001.52 938.686 994.006 930.785 994.462 924.536C994.462 924.536 1039.8 885.598 1039.67 881.047C1039.44 872.438 1032.24 861.073 992.441 821.259C981.618 810.433 1004.65 762.187 1004.65 762.187Z" fill="#F99746"/>
<path d="M284.652 1435.06H284.323C282.385 1435.06 280.827 1433.47 280.872 1431.53L286.106 1204.67L301.524 1202.87L288.376 1431.55C288.263 1433.52 286.629 1435.06 284.652 1435.06Z" fill="#95C0F4"/>
<path d="M532.582 1435.06H532.911C534.848 1435.06 536.407 1433.47 536.362 1431.53L531.128 1204.67L515.709 1202.87L528.858 1431.55C528.971 1433.52 530.605 1435.06 532.582 1435.06Z" fill="#B0D4FF"/>
<path d="M274.436 1190.6V1035.14C274.436 1007.78 296.611 985.61 323.964 985.61H435.969C463.323 985.61 485.497 1007.78 485.497 1035.14V1196.54L274.436 1190.6Z" fill="#B0D4FF"/>
<path d="M505.566 1215.14H289.307C281.094 1215.14 274.436 1208.48 274.436 1200.27V1190.6H505.566V1215.14Z" fill="#95C0F4"/>
<path d="M531.48 1215.14H367.873C361.8 1215.14 356.876 1210.22 356.876 1204.14V1201.59C356.876 1195.52 361.8 1190.6 367.873 1190.6H531.48C537.553 1190.6 542.477 1195.52 542.477 1201.59V1204.14C542.477 1210.22 537.553 1215.14 531.48 1215.14Z" fill="#B0D4FF"/>
<path d="M525.129 1151.86C509.083 1179.79 488.902 1190.57 488.902 1190.57H404.943C404.943 1190.57 537.369 1130.56 525.129 1151.86Z" fill="#233862"/>
<path d="M460.645 1367.93C458.457 1370.44 458.178 1373.24 459.261 1376.23C459.262 1376.25 459.269 1376.26 459.282 1376.28C461.285 1381.81 467.9 1387.99 475.585 1394.16C476.568 1394.95 477.441 1395.67 478.201 1396.34C478.401 1396.52 478.602 1396.69 478.789 1396.87C478.943 1397 479.094 1397.14 479.243 1397.28C486.408 1403.88 483.711 1405.39 496.585 1418.8C511.265 1434.07 521.371 1434.35 524.246 1432.96C526.68 1431.77 521.737 1423.67 516.261 1414.56C515.995 1414.13 515.736 1413.68 515.463 1413.24C514.734 1412.03 514.01 1410.8 513.285 1409.58C506.868 1398.62 508.516 1393.48 510.037 1377.17C511.273 1363.92 530.654 1303.14 530.654 1303.14L502.522 1298.29C502.522 1298.29 494.049 1346.69 484.715 1354.15C479.725 1358.12 474.137 1358.17 469.34 1361.11C469 1361.32 468.668 1361.53 468.341 1361.75C465.616 1363.55 462.839 1365.42 460.645 1367.93Z" fill="#FFB27D"/>
<path d="M460.645 1367.93C458.457 1370.44 458.178 1373.24 459.261 1376.23C459.262 1376.25 459.269 1376.26 459.282 1376.28C461.734 1381.8 468.183 1387.95 475.612 1394.1C476.582 1394.91 477.439 1395.65 478.201 1396.34C478.401 1396.52 478.602 1396.69 478.789 1396.87C478.943 1397 479.094 1397.14 479.243 1397.27C486.408 1403.88 483.711 1405.39 496.585 1418.8C511.265 1434.07 521.371 1434.35 524.246 1432.96C526.68 1431.77 521.737 1423.67 516.261 1414.56C513.404 1413.52 500.13 1408.12 490.093 1395.28C481.254 1384 475.36 1369.51 469.341 1361.11C469.001 1361.32 468.669 1361.53 468.342 1361.74C465.616 1363.55 462.839 1365.42 460.645 1367.93Z" fill="#233862"/>
<path d="M687.483 1350.36C689.219 1359.05 701.597 1357.6 715.426 1354.22C729.254 1350.84 725.968 1354.86 745.65 1352.68C765.332 1350.5 771.294 1343.16 771.894 1340.23C772.432 1337.64 762.706 1336.72 752.275 1335.52C750.963 1335.37 749.646 1335.21 748.329 1335.05C736.552 1333.57 727.928 1325.97 717.228 1319.73C707.096 1313.82 691.975 1289.73 691.975 1289.73L664.983 1291.87C664.983 1291.87 679.147 1313.38 684.626 1322.74C687.849 1328.24 687.678 1335.51 687.275 1341.13C687.066 1344.18 686.867 1347.3 687.483 1350.36Z" fill="#FFB27D"/>
<path d="M715.427 1354.22C729.255 1350.84 725.969 1354.86 745.651 1352.68C765.333 1350.5 771.295 1343.16 771.895 1340.23C772.433 1337.64 762.707 1336.72 752.276 1335.52L752.178 1335.72C752.178 1335.72 740.375 1344.09 723.992 1344.48C710.639 1344.81 696.496 1340.98 687.275 1341.13C687.066 1344.18 686.867 1347.3 687.483 1350.36C689.22 1359.05 701.597 1357.6 715.427 1354.22Z" fill="#233862"/>
<path d="M584.045 1177.77L558.813 1245.67L525.872 1334.32C525.872 1334.32 516.933 1335.18 508.372 1332.72C500.49 1330.44 491.446 1324.48 491.446 1324.48C491.446 1324.48 500.592 1229.3 517.656 1174.65C522.029 1160.63 526.929 1149.28 532.339 1142.9C558.789 1111.64 584.045 1177.77 584.045 1177.77Z" fill="#233862"/>
<path d="M558.39 1069.94C541.86 1064.61 494.712 1071.46 447.351 1080.73L437.435 1064.37L335.137 1056.38C335.137 1056.38 301.38 1131.24 319.861 1178.94C322.578 1185.95 327.975 1190.45 337.175 1190.6C337.178 1190.6 338.665 1190.59 338.67 1190.6C338.67 1190.6 399.555 1190.56 419.325 1190.56C470.199 1190.56 526.992 1155.59 534.338 1154.12C546.365 1151.72 551.174 1175.77 563.2 1201.02C575.224 1226.27 676.237 1312.86 676.237 1312.86C676.237 1312.86 691.762 1313.01 698.177 1310.61C705.073 1308.02 707.597 1304.66 707.597 1304.66C707.597 1304.66 595.669 1081.97 558.39 1069.94Z" fill="#2B478B"/>
<path d="M433.411 766.501C420.305 759.62 400.367 758.689 397.127 758.253C358.363 753.043 335.032 809.372 333.66 826.441C331.131 857.9 314.488 862.697 291.063 882.399C244.093 921.904 257.867 967.81 283.55 984.866C298.959 995.101 326.121 984.865 326.121 984.865C326.506 985.134 400.405 943.553 436.834 923.496C491.445 915.732 466.806 784.037 433.411 766.501Z" fill="#B5453C"/>
<path d="M406.301 906.423C406.462 906.527 388.379 912.699 376.287 907.345C364.911 902.318 356.294 883.602 356.463 883.592C361.638 883.353 367.318 878.829 371.693 849.144L373.897 849.935L410.946 863.266C410.946 863.266 408.261 875.154 406.525 886.472C405.064 895.974 404.278 905.079 406.301 906.423Z" fill="#FFB27D"/>
<path d="M410.946 863.265C410.946 863.265 408.261 875.153 406.525 886.471C385.245 882.641 376.893 861.439 373.897 849.934L410.946 863.265Z" fill="#ED975D"/>
<path d="M416.464 875.064C416.464 875.064 365.774 868.26 370.497 836.758C375.219 805.256 371.857 783.162 404.422 786.174C436.985 789.187 441.457 802.148 442.439 813.045C443.419 823.944 429.771 876.022 416.464 875.064Z" fill="#FFB27D"/>
<path d="M440.591 795.778C440.591 795.778 408.142 823.742 386.07 825.996C363.998 828.251 355.641 821.167 355.641 821.167C355.641 821.167 368.652 810.364 376.48 792.933C378.788 787.794 383.663 784.268 389.274 783.784C405.036 782.423 434.913 781.803 440.591 795.778Z" fill="#B5453C"/>
<path d="M420.306 793.274C420.306 793.274 431.162 803.77 434.58 811.555C437.88 819.068 438.869 837.036 436.242 844.172C436.242 844.172 453.155 811.284 443.58 795.306C433.426 778.363 420.306 793.274 420.306 793.274Z" fill="#B5453C"/>
<path d="M448.986 981.093C447.453 1083.7 448.564 1062.26 437.34 1072C434.635 1074.34 427.032 1075.74 417.026 1076.4C385.563 1078.49 330.254 1073.3 328.151 1067.49C320.893 1047.37 326.017 1041.12 319.962 1010.32C319.331 1007.04 318.55 1003.5 317.633 999.634C312.585 978.478 307.671 971.281 325.581 937.293C341.824 906.506 358.697 881.519 360.215 882.42C403.067 907.858 406.525 886.477 406.525 886.477C406.525 886.477 449.737 931.044 448.986 981.093Z" fill="#8C9DF4"/>
<path d="M558.812 1245.67L525.871 1334.32C525.871 1334.32 516.932 1335.18 508.371 1332.72C500.489 1330.45 491.445 1324.48 491.445 1324.48C491.445 1324.48 500.591 1229.3 517.655 1174.65L558.812 1245.67Z" fill="#2B478B"/>
<path d="M406.525 886.471C406.525 886.471 450.619 893.947 455.797 912.931C460.975 931.916 491.445 1043.52 491.445 1043.52C491.445 1043.52 469.029 1047.55 458.674 1037.2C448.319 1026.84 422.642 941.122 422.642 941.122L406.525 886.471Z" fill="#8C9DF4"/>
<path d="M417.026 1076.4C385.563 1078.49 330.254 1073.3 328.151 1067.49C320.893 1047.37 326.017 1041.12 319.962 1010.32L335.138 967.585C335.138 967.585 332.628 1015.17 346.662 1027.69C360.681 1040.2 404.12 1051.85 410.94 1062.31C414.231 1067.32 416.396 1072.36 417.026 1076.4Z" fill="#6980E2"/>
<path d="M380.977 1056.38C380.977 1056.38 412.017 1049.47 417.026 1052.23C422.034 1054.98 434.275 1065.01 435.807 1068.51C437.34 1072 424.658 1065.86 420.532 1064.75C417.86 1064.03 410.827 1066.48 407.346 1067.64C392.697 1072.52 383.719 1070.01 383.719 1070.01L380.977 1056.38Z" fill="#FFB27D"/>
<path d="M360.188 882.398C360.188 882.398 318.509 884.965 304.081 905.089C283.771 933.416 243.48 1054.14 266.571 1070.24C292.575 1088.38 384.923 1074.99 384.923 1074.99C384.923 1074.99 387.996 1060.62 383.72 1053.67C379.445 1046.73 309.961 1035.5 306.754 1032.3C303.547 1029.09 346.841 969.761 346.841 960.141C346.841 950.52 360.188 882.398 360.188 882.398Z" fill="#8C9DF4"/>
<path d="M418.529 1060.87C418.529 1060.87 425.033 1069.26 427.165 1070.26C429.298 1071.26 430.674 1071.01 430.674 1071.01L426.291 1063.12L418.529 1060.87Z" fill="#FFB27D"/>
<path d="M417.026 1052.23L435.936 1061.41C435.936 1061.41 435.131 1062.73 432.803 1062.62C430.474 1062.51 424.602 1060.37 424.602 1060.37L417.026 1052.23Z" fill="#FFB27D"/>
<path d="M420.325 1083.11H579.859L627.85 971.217H468.561L420.325 1083.11Z" fill="#F77D48"/>
<path d="M581.728 1075.86H371.062V1082.93H579.859L581.728 1075.86Z" fill="#F77D48"/>
<path d="M539.587 1027.16C540.79 1023.23 538.364 1020.04 534.17 1020.04C529.975 1020.04 525.6 1023.23 524.396 1027.16C523.194 1031.1 525.62 1034.29 529.814 1034.29C534.009 1034.29 538.384 1031.1 539.587 1027.16Z" fill="#EBF3FA"/>
<path d="M815.745 1438.18H816.18C818.743 1438.18 820.804 1435.85 820.745 1433.03L813.822 1102.01L793.432 1099.39L810.821 1433.05C810.97 1435.93 813.132 1438.18 815.745 1438.18Z" fill="#233862"/>
<path d="M385.933 1438.18H385.498C382.936 1438.18 380.874 1435.85 380.934 1433.03L387.856 1102.01L408.247 1099.39L390.858 1433.05C390.709 1435.93 388.548 1438.18 385.933 1438.18Z" fill="#233862"/>
<path d="M823.774 1106.8H359.293C355.19 1106.8 351.863 1103.47 351.863 1099.37V1090.54C351.863 1086.44 355.189 1083.11 359.293 1083.11H823.775C827.879 1083.11 831.205 1086.44 831.205 1090.54V1099.37C831.204 1103.47 827.879 1106.8 823.774 1106.8Z" fill="#233862"/>
<path d="M2521.73 1442.69H3.93849C1.94349 1442.69 0.310486 1441.06 0.310486 1439.07V1435.55C0.310486 1433.56 1.94349 1431.92 3.93849 1431.92H2521.73C2523.73 1431.92 2525.36 1433.56 2525.36 1435.55V1439.07C2525.36 1441.06 2523.73 1442.69 2521.73 1442.69Z" fill="#2E3552"/>
</svg>
